<svg width="400" height="280" viewBox="0 0 400 280" fill="none" xmlns="http://www.w3.org/2000/svg">
<path d="M120 200C120 228.003 120 242.004 125.45 252.7C130.243 262.108 137.892 269.757 147.3 274.55C157.996 280 171.997 280 200 280H280H280.002C286.769 280 292.718 280 298 279.923V280H346V279.998C371.437 279.781 392.933 263.048 400.289 239.999C378.185 239.887 360.27 222.067 360.003 200H360C360 171.997 360 157.996 354.55 147.3C349.757 137.892 342.108 130.243 332.7 125.45C328.679 123.401 324.191 122.122 318.667 121.325C317.556 130.718 315.304 140.823 310.19 150.859C301.562 167.794 287.794 181.562 270.859 190.19C258.933 196.267 246.908 198.303 236.097 199.186C226.108 200.002 214.192 200.001 201.372 200L120 200Z" fill="#94B704"/>
<path d="M121.53 160C122.336 155.079 123.568 150.993 125.45 147.3C130.243 137.892 137.892 130.243 147.3 125.45C157.996 120 171.997 120 200 120H278.47C277.664 124.921 276.432 129.007 274.55 132.699C269.757 142.108 262.108 149.757 252.699 154.55C242.004 160 228.003 160 200 160H121.53Z" fill="#94B704"/>
<path fill-rule="evenodd" clip-rule="evenodd" d="M45.4497 27.3005C40 37.9961 40 51.9974 40 80C40 108.003 40 122.004 45.4497 132.7C50.2433 142.108 57.8924 149.757 67.3005 154.55C77.9961 160 91.9974 160 120 160L200 160C228.003 160 242.004 160 252.699 154.55C262.108 149.757 269.757 142.108 274.55 132.699C280 122.004 280 108.003 280 80C280 51.9974 280 37.9961 274.55 27.3005C269.757 17.8924 262.108 10.2433 252.7 5.44967C242.004 0 228.003 0 200 0H120C91.9974 0 77.9961 0 67.3005 5.44967C57.8924 10.2433 50.2433 17.8924 45.4497 27.3005ZM94.5 105C108.031 105 119 94.031 119 80.5C119 66.969 108.031 56 94.5 56C80.969 56 70 66.969 70 80.5C70 94.031 80.969 105 94.5 105ZM185 80.5C185 94.031 174.031 105 160.5 105C146.969 105 136 94.031 136 80.5C136 66.969 146.969 56 160.5 56C174.031 56 185 66.969 185 80.5ZM226.5 105C240.031 105 251 94.031 251 80.5C251 66.969 240.031 56 226.5 56C212.969 56 202 66.969 202 80.5C202 94.031 212.969 105 226.5 105Z" fill="#94B704"/>
<path d="M-0.288574 119.999C7.115 143.199 28.8455 160 54.5001 160C61.0319 160 67.3093 158.911 73.1607 156.904C71.0735 156.262 69.1382 155.487 67.3005 154.55C57.8924 149.757 50.2433 142.108 45.4497 132.7C40 122.004 40 108.003 40 80C40 80 40 80 40 80H39.9971C39.7301 102.067 21.815 119.887 -0.288574 119.999Z" fill="#94B704"/>
<path d="M54.0001 150H102V160H54.0001V150Z" fill="#94B704"/>
</svg>
