<svg width="320" height="320" viewBox="0 0 320 320" fill="none" xmlns="http://www.w3.org/2000/svg">
<path d="M90 70C78.9543 70 70 78.9543 70 90V130C70 141.046 78.9543 150 90 150H130C141.046 150 150 141.046 150 130V90C150 78.9543 141.046 70 130 70H90Z" fill="#94B704"/>
<path d="M242.223 97.9368C246.883 92.8429 246.531 84.9362 241.437 80.2767C236.343 75.6171 228.436 75.9693 223.777 81.0632L217.339 88.1007C216.17 89.3791 214.156 89.3791 212.986 88.1007C202.479 76.614 184.612 75.9259 173.252 86.5703L165.453 93.8787C160.415 98.5991 160.158 106.51 164.879 111.547C169.599 116.585 177.51 116.842 182.547 112.121L190.346 104.813C191.545 103.69 193.431 103.762 194.54 104.974C205.62 117.088 224.705 117.088 235.786 104.974L242.223 97.9368Z" fill="#94B704"/>
<path d="M248.938 188.805C253.764 183.869 253.675 175.954 248.738 171.128C243.802 166.302 235.888 166.392 231.062 171.328L223.627 178.933C222.232 180.36 219.624 180.433 218.063 178.715C206.887 166.414 187.235 166.039 175.829 178.595C174.457 180.104 172.083 180.104 170.711 178.595C159.42 166.166 139.878 166.166 128.586 178.595C127.214 180.104 124.84 180.104 123.469 178.595L123.231 178.333C112.12 166.103 93.0161 165.721 81.424 177.495L73.0923 185.958C68.2491 190.878 68.311 198.792 73.2305 203.635C78.1501 208.479 86.0644 208.417 90.9077 203.497L99.2394 195.034C100.761 193.489 103.269 193.539 104.727 195.144L104.965 195.405C116.256 207.834 135.798 207.834 147.09 195.405C148.462 193.896 150.836 193.896 152.207 195.405C163.499 207.834 183.041 207.834 194.332 195.405C195.589 194.022 198.072 193.889 199.559 195.526C210.576 207.652 229.823 208.358 241.504 196.41L248.938 188.805Z" fill="#94B704"/>
<path fill-rule="evenodd" clip-rule="evenodd" d="M0 40C0 17.9086 17.9086 0 40 0H280C302.091 0 320 17.9086 320 40V300C320 311.046 311.046 320 300 320C288.954 320 280 311.046 280 300V280H40V300C40 311.046 31.0457 320 20 320C8.95431 320 0 311.046 0 300V40ZM280 80V240H40V80C40 57.9086 57.9086 40 80 40H240C262.091 40 280 57.9086 280 80Z" fill="#94B704"/>
</svg>
