<svg width="240" height="320" viewBox="0 0 240 320" fill="none" xmlns="http://www.w3.org/2000/svg">
<path d="M58 90C58 78.9543 66.9543 70 78 70H118C129.046 70 138 78.9543 138 90C138 101.046 129.046 110 118 110H78C66.9543 110 58 101.046 58 90Z" fill="#94B704"/>
<path d="M76 193C67.7157 193 61 199.716 61 208C61 216.284 67.7157 223 76 223C84.2843 223 91 216.284 91 208C91 199.716 84.2843 193 76 193Z" fill="#94B704"/>
<path d="M175.449 150.287C170.361 145.621 162.453 145.963 157.787 151.051L152.384 156.944C151.897 157.475 151.052 157.452 150.595 156.896L150.315 156.557C139.985 144.005 120.767 144.005 110.437 156.557C110.338 156.677 110.254 156.73 110.181 156.763C110.093 156.804 109.968 156.836 109.818 156.835C109.668 156.835 109.533 156.802 109.428 156.753C109.337 156.712 109.239 156.646 109.129 156.514C98.8993 144.083 79.7888 143.801 69.2986 156.203L64.4563 161.927C59.9979 167.198 60.6565 175.085 65.9273 179.544C71.1981 184.002 79.0852 183.344 83.5437 178.073L88.3859 172.348C88.4942 172.22 88.5887 172.16 88.6748 172.122C88.7758 172.077 88.9123 172.044 89.0735 172.045C89.3925 172.048 89.636 172.169 89.8263 172.4C100.109 184.895 119.363 185.052 129.74 172.443C130.07 172.043 130.683 172.043 131.012 172.443L131.291 172.783C141.405 185.071 160.052 185.571 170.809 173.841L176.213 167.949C180.879 162.861 180.537 154.953 175.449 150.287Z" fill="#94B704"/>
<path d="M120.522 219.098L122.814 216.403C132.523 226.071 148.803 225.187 157.325 214.009L159.94 210.579C164.126 205.089 163.069 197.245 157.579 193.06C152.089 188.874 144.245 189.931 140.06 195.421L138.882 196.966C129.498 187.726 113.982 188.197 105.229 198.491L101.478 202.902C97.0053 208.161 97.6432 216.05 102.902 220.522C108.161 224.995 116.05 224.357 120.522 219.098Z" fill="#94B704"/>
<path fill-rule="evenodd" clip-rule="evenodd" d="M40 0C17.9086 0 0 17.9086 0 40V280C0 302.091 17.9086 320 40 320H200C222.091 320 240 302.091 240 280V40C240 17.9086 222.091 0 200 0H40ZM80 40C57.9086 40 40 57.9086 40 80V240C40 262.091 57.9086 280 80 280H160C182.091 280 200 262.091 200 240V80C200 57.9086 182.091 40 160 40H80Z" fill="#94B704"/>
</svg>
