<svg width="320" height="320" viewBox="0 0 320 320" fill="none" xmlns="http://www.w3.org/2000/svg">
<path d="M240 200C240 222.091 222.091 240 200 240C177.909 240 160 222.091 160 200C160 177.909 177.909 160 200 160C222.091 160 240 177.909 240 200Z" fill="#604CC3"/>
<path d="M0 40C0 17.9086 17.9086 0 40 0H280C302.091 0 320 17.9086 320 40V120H0V40Z" fill="#604CC3"/>
<path d="M40 120H0V280C0 302.091 17.9086 320 40 320H280C302.091 320 320 302.091 320 280V120H280V240C280 262.091 262.091 280 240 280H80C57.9086 280 40 262.091 40 240V120Z" fill="#604CC3"/>
<path d="M99 180C99 168.954 107.954 160 119 160C130.046 160 139 168.954 139 180V220C139 231.046 130.046 240 119 240C107.954 240 99 231.046 99 220V180Z" fill="#604CC3"/>
</svg>
