<svg width="315" height="320" viewBox="0 0 315 320" fill="none" xmlns="http://www.w3.org/2000/svg">
<path d="M0 40C0 17.9086 17.9086 0 40 0H200C222.091 0 240 17.9086 240 40V120C240 131.046 231.046 140 220 140C208.954 140 200 131.046 200 120V80C200 57.9086 182.091 40 160 40H80C57.9086 40 40 57.9086 40 80V300C40 311.046 31.0457 320 20 320C8.95431 320 0 311.046 0 300V40Z" fill="#DCD489"/>
<path d="M220 220C208.954 220 200 228.954 200 240V300C200 311.046 208.954 320 220 320C231.046 320 240 311.046 240 300V240C240 228.954 231.046 220 220 220Z" fill="#DCD489"/>
<path d="M315 180C315 168.954 306.046 160 295 160H197C185.954 160 177 168.954 177 180C177 191.046 185.954 200 197 200H295C306.046 200 315 191.046 315 180Z" fill="#DCD489"/>
<path d="M144.3 105.916C152.078 98.0736 164.741 98.0215 172.584 105.8C180.426 113.578 180.478 126.241 172.7 134.084L126.344 180.824L172.524 226.241C180.399 233.986 180.505 246.648 172.759 254.524C165.014 262.399 152.352 262.505 144.476 254.759L83.9762 195.259C80.1839 191.53 78.0335 186.443 78.0004 181.124C77.9673 175.806 80.0542 170.693 83.7998 166.916L144.3 105.916Z" fill="#DCD489"/>
</svg>
