<svg width="360" height="320" viewBox="0 0 360 320" fill="none" xmlns="http://www.w3.org/2000/svg">
<path d="M0 40C0 17.9086 17.9086 0 40 0H200C222.091 0 240 17.9086 240 40V120C240 131.046 231.046 140 220 140C208.954 140 200 131.046 200 120V80C200 57.9086 182.091 40 160 40H80C57.9086 40 40 57.9086 40 80V300C40 311.046 31.0457 320 20 320C8.95431 320 0 311.046 0 300V40Z" fill="#DCD489"/>
<path d="M220 220C208.954 220 200 228.954 200 240V300C200 311.046 208.954 320 220 320C231.046 320 240 311.046 240 300V240C240 228.954 231.046 220 220 220Z" fill="#DCD489"/>
<path d="M123 180C123 168.954 131.954 160 143 160H241C252.046 160 261 168.954 261 180C261 191.046 252.046 200 241 200H143C131.954 200 123 191.046 123 180Z" fill="#DCD489"/>
<path d="M293.7 105.916C285.922 98.0736 273.259 98.0215 265.416 105.8C257.574 113.578 257.522 126.241 265.3 134.084L311.656 180.824L265.476 226.241C257.601 233.986 257.495 246.648 265.241 254.524C272.986 262.399 285.648 262.505 293.524 254.759L354.024 195.259C357.816 191.53 359.966 186.443 360 181.124C360.033 175.806 357.946 170.693 354.2 166.916L293.7 105.916Z" fill="#DCD489"/>
</svg>
