<svg width="411" height="325" viewBox="0 0 411 325" fill="none" xmlns="http://www.w3.org/2000/svg">
<path d="M205 55C227.058 55.0002 246.548 65.9881 258.299 82.7881C237.064 97.2332 218.909 115.866 205.024 137.496C191.131 115.855 172.964 97.214 151.714 82.7656C163.467 65.9777 182.952 55 205 55Z" fill="white"/>
<path d="M326.476 40C326.476 44.7646 326.198 49.4643 325.658 54.084C311.249 57.12 297.443 61.7884 284.442 67.8867C274.493 52.7514 260.335 40.6293 243.633 33.1855C265.172 12.6262 294.349 0 326.476 0V40Z" fill="white"/>
<path d="M84.0239 0C116.072 0 145.184 12.5643 166.708 33.0342C149.863 40.4619 135.584 52.6392 125.568 67.8701C112.716 61.8456 99.0797 57.2168 84.8521 54.1816C84.3046 49.5306 84.0239 44.7981 84.0239 40V0Z" fill="white"/>
<path d="M205.024 240C205.024 151.634 276.658 80 365.024 80H405.024C405.024 168.366 333.389 240 245.024 240H205.024Z" fill="white"/>
<path d="M205.024 240C205.024 151.634 133.389 80 45.0239 80H5.02393C5.02393 168.366 76.6584 240 165.024 240H205.024Z" fill="white"/>
<path d="M125.024 293.333C125.024 263.878 160.841 240 205.024 240V266.667C205.024 296.122 169.207 320 125.024 320V293.333Z" fill="white"/>
<path d="M285.024 293.333C285.024 263.878 249.207 240 205.024 240V266.667C205.024 296.122 240.841 320 285.024 320V293.333Z" fill="white"/>
<path d="M205.024 266.667C205.024 296.122 240.841 320 285.024 320V293.333C285.024 263.878 249.207 240 205.024 240C160.841 240 125.024 263.878 125.024 293.333V320C169.207 320 205.024 296.122 205.024 266.667ZM290.024 325H285.024C262.083 325 241.088 318.81 225.682 308.539C216.727 302.569 209.499 295.086 205.024 286.533C200.549 295.086 193.321 302.569 184.366 308.539C168.96 318.81 147.965 325 125.024 325H120.024V293.333C120.024 276.414 130.311 261.708 145.682 251.461C149.359 249.01 153.354 246.791 157.618 244.833C69.9278 240.959 0.0239258 168.645 0.0239258 80V75H45.0239V80H5.02393C5.02393 168.366 76.6584 240 165.024 240H205.024C205.024 151.634 133.389 80 45.0239 80V75C122.191 75 186.983 127.974 205.024 199.54C223.065 127.974 287.857 75 365.024 75V80C276.658 80 205.024 151.634 205.024 240H245.024C333.389 240 405.024 168.366 405.024 80H365.024V75H410.024V80C410.024 168.645 340.12 240.96 252.429 244.833C256.693 246.791 260.689 249.01 264.366 251.461C279.737 261.708 290.024 276.414 290.024 293.333V325Z" fill="white"/>
</svg>
