<svg width="300" height="300" viewBox="0 0 26 26" fill="none" xmlns="http://www.w3.org/2000/svg">
<path d="M0 3.25C0 1.45507 1.45507 0 3.25 0H8.6125C10.4074 0 11.8625 1.45507 11.8625 3.25V22.75C11.8625 24.5449 10.4074 26 8.6125 26H3.25C1.45507 26 0 24.5449 0 22.75V3.25Z" fill="#000000"/>
<path d="M14.1375 3.25C14.1375 1.45507 15.5926 0 17.3875 0H22.75C24.5449 0 26 1.45507 26 3.25V8.6125C26 10.4074 24.5449 11.8625 22.75 11.8625H17.3875C15.5926 11.8625 14.1375 10.4074 14.1375 8.6125V3.25Z" fill="#000000"/>
<path fill-rule="evenodd" clip-rule="evenodd" d="M17.3875 14.1375C15.5926 14.1375 14.1375 15.5926 14.1375 17.3875V22.75C14.1375 24.5449 15.5926 26 17.3875 26H22.75C24.5449 26 26 24.5449 26 22.75V17.3875C26 15.5926 24.5449 14.1375 22.75 14.1375H17.3875ZM18.8567 17.3875C18.0453 17.3875 17.3875 18.0453 17.3875 18.8567V21.2808C17.3875 22.0922 18.0453 22.75 18.8567 22.75H21.2808C22.0922 22.75 22.75 22.0922 22.75 21.2808V18.8567C22.75 18.0453 22.0922 17.3875 21.2808 17.3875H18.8567Z" fill="#000000"/>
</svg>