<svg width="74" height="50" viewBox="0 0 74 50" fill="none" xmlns="http://www.w3.org/2000/svg">
<path d="M5.41949 11.5748C6.49088 11.5694 7.56226 11.5653 8.63365 11.5628C9.13139 11.5616 9.62911 11.56 10.1268 11.5574C10.6091 11.5548 11.0913 11.5534 11.5735 11.5529C11.7555 11.5524 11.9376 11.5516 12.1196 11.5503C13.857 11.5387 15.5858 11.6695 17.2911 12.0136C17.3897 12.0331 17.4883 12.0527 17.5899 12.0728C21.4128 12.8504 25.0249 14.55 28.0708 16.9749C28.1494 17.0368 28.228 17.0988 28.3091 17.1626C29.677 18.2581 31.0321 19.511 32.0908 20.9092C32.1669 21.0053 32.2431 21.1013 32.3194 21.1973C34.3723 23.7983 35.9362 26.8199 36.8182 30.0139C36.8617 30.1688 36.9109 30.3221 36.9612 30.475C37.0123 30.5004 37.0633 30.5259 37.1158 30.5521C37.1301 30.4999 37.1444 30.4477 37.1591 30.394C38.1314 26.8836 39.7435 23.6498 42.0636 20.832C42.0991 20.7885 42.1347 20.7449 42.1713 20.7001C42.7213 20.0315 43.3178 19.4104 43.9286 18.7974C43.9987 18.7268 44.0687 18.6562 44.1409 18.5834C44.6101 18.1173 45.1015 17.6941 45.6197 17.2834C45.7048 17.2136 45.7896 17.1436 45.8743 17.0734C47.1334 16.0577 48.5069 15.1636 49.949 14.4291C50.0196 14.393 50.0901 14.3568 50.1628 14.3196C52.2638 13.2533 54.4476 12.4855 56.757 12.0232C56.8468 12.0048 56.9367 11.9865 57.0293 11.9675C58.7492 11.639 60.4778 11.54 62.2253 11.5522C62.4129 11.5526 62.6004 11.553 62.788 11.5532C63.2735 11.5541 63.7589 11.5563 64.2444 11.5589C64.7431 11.5613 65.2417 11.5624 65.7404 11.5635C66.7128 11.566 67.6852 11.5699 68.6576 11.5748C68.6598 11.8963 68.6613 12.2178 68.6624 12.5393C68.6628 12.6482 68.6634 12.7571 68.6641 12.866C68.7092 19.4642 65.711 25.7212 61.1317 30.3606C60.5462 30.949 59.9669 31.5175 59.3033 32.0178C59.207 32.0938 59.1107 32.1698 59.0146 32.246C55.0665 35.3487 50.0958 37.3698 45.0559 37.6228C44.8488 37.6491 44.7158 37.6983 44.5374 37.8036C44.6469 37.8597 44.6469 37.8597 44.7585 37.9169C46.9566 39.0565 48.9228 40.6684 49.7944 43.0494C50.073 43.9585 50.1473 44.8438 50.1338 45.7886C50.1332 45.9111 50.1328 46.0337 50.1325 46.1562C50.1313 46.4735 50.1283 46.7908 50.1249 47.1081C50.1217 47.434 50.1203 47.7598 50.1187 48.0857C50.1154 48.7213 50.1102 49.3568 50.1036 49.9923C49.7888 49.9949 49.4739 49.9964 49.159 49.9977C49.0712 49.9984 48.9835 49.9992 48.893 49.9999C46.2256 50.0084 43.5554 49.3328 41.2132 48.0637C41.167 48.0395 41.1209 48.0153 41.0733 47.9903C39.507 47.1679 37.8684 45.8489 37.1158 44.2065C37.0648 44.2065 37.0138 44.2065 36.9612 44.2065C36.8506 44.3685 36.7482 44.5305 36.6472 44.6983C36.3336 45.2013 35.9839 45.6322 35.5697 46.058C35.5195 46.1138 35.4692 46.1695 35.4175 46.227C33.1413 48.6687 29.2233 49.8301 25.9835 49.9923C25.6338 49.9983 25.2844 49.9973 24.9347 49.9956C24.7956 49.9952 24.7956 49.9952 24.6537 49.9949C24.427 49.9943 24.2002 49.9934 23.9735 49.9923C23.968 49.2981 23.9639 48.604 23.9614 47.9098C23.9602 47.5874 23.9586 47.2649 23.956 46.9425C23.9534 46.6304 23.952 46.3183 23.9515 46.0061C23.951 45.888 23.9502 45.7699 23.9489 45.6518C23.9258 43.3991 24.7637 41.5889 26.3314 39.9685C27.1467 39.154 28.1351 38.557 29.1456 38.0152C29.3844 37.8952 29.3844 37.8952 29.5396 37.7265C29.4434 37.7151 29.4434 37.7151 29.3452 37.7036C29.0688 37.6701 28.7926 37.6352 28.5164 37.5996C28.3674 37.5805 28.2182 37.5617 28.0691 37.5433C25.3028 37.1979 22.6391 36.5135 20.108 35.335C20.0061 35.2876 20.0061 35.2876 19.9021 35.2393C18.2952 34.4839 16.7844 33.5825 15.3923 32.4807C15.3232 32.4272 15.2541 32.3737 15.183 32.3186C14.9927 32.1695 14.8057 32.0172 14.6192 31.8636C14.5065 31.7726 14.5065 31.7726 14.3915 31.6797C13.7836 31.1805 13.2201 30.6382 12.6623 30.0844C12.5913 30.0143 12.5202 29.9441 12.4471 29.8718C11.9786 29.4022 11.5528 28.911 11.1403 28.3921C11.0685 28.3046 10.9965 28.2172 10.9244 28.1299C7.43408 23.8005 5.39193 18.2441 5.41617 12.681C5.41644 12.5733 5.41668 12.4655 5.4169 12.3577C5.41752 12.0967 5.41839 11.8358 5.41949 11.5748Z" fill="black"/>
<path d="M39.7443 8.79764C39.8 8.81336 39.8557 8.82907 39.913 8.84526C41.2486 9.23753 42.4747 9.90357 43.5324 10.8034C43.6052 10.8634 43.6779 10.9235 43.7529 10.9854C44.6791 11.782 45.579 12.8874 46.0063 14.0434C45.926 14.1031 45.8456 14.1627 45.7629 14.2242C45.166 14.6685 44.5708 15.1133 43.9963 15.5863C43.9229 15.6451 43.8496 15.704 43.774 15.7647C43.1349 16.2873 42.5472 16.8613 41.9621 17.4425C41.9225 17.4816 41.883 17.5207 41.8422 17.5609C41.3125 18.0854 40.8282 18.6289 40.3628 19.212C40.2422 19.352 40.1215 19.4919 40.0004 19.6315C38.8798 20.9775 37.8878 22.5016 37.1158 24.0721C37.0648 24.0721 37.0138 24.0721 36.9612 24.0721C36.9272 24.0016 36.8931 23.9311 36.858 23.8584C36.119 22.3794 35.1556 20.9484 34.1008 19.6749C34.0669 19.6338 34.033 19.5928 33.9981 19.5505C33.2752 18.6787 32.5156 17.8477 31.7139 17.0472C31.6431 16.9755 31.5722 16.9039 31.4992 16.8301C31.0249 16.3557 30.5299 15.9248 30.0035 15.5091C29.9002 15.4255 29.797 15.3417 29.694 15.2578C29.1662 14.8325 28.6354 14.4199 28.0708 14.0434C28.7133 12.6204 29.6856 11.4396 30.9312 10.4948C30.9886 10.45 31.046 10.4051 31.1051 10.3589C32.3842 9.40831 33.8542 8.84597 35.4151 8.56621C35.4929 8.55199 35.5707 8.53777 35.6509 8.52312C37.016 8.37087 38.4214 8.42089 39.7443 8.79764Z" fill="black"/>
<path d="M0.00792225 33.5607C0.0977745 33.6952 0.18752 33.8298 0.276991 33.9645C1.99932 36.4973 5.62748 37.1635 8.44112 37.7114C10.2814 38.063 12.138 38.3021 14.0007 38.4979C14.0996 38.5083 14.0996 38.5083 14.2004 38.5189C15.8642 38.6916 17.5299 38.8051 19.2003 38.8887C19.3029 38.8939 19.3029 38.8939 19.4075 38.8991C20.1011 38.9338 20.7948 38.9674 21.4886 38.9984C21.7497 39.0101 22.0109 39.0224 22.272 39.0348C22.3952 39.0404 22.5185 39.0459 22.6417 39.051C22.8115 39.058 22.9811 39.066 23.1508 39.0741C23.2466 39.0783 23.3424 39.0825 23.4412 39.0869C23.6642 39.1151 23.6642 39.115 23.8188 39.2693C23.764 39.3327 23.764 39.3327 23.708 39.3974C22.4956 40.8477 21.8621 42.4964 21.6068 44.3602C21.5964 44.4347 21.5859 44.5093 21.5752 44.586C21.5498 44.7681 21.5246 44.9501 21.4996 45.1322C20.4672 45.134 19.4348 45.1354 18.4024 45.1362C17.9228 45.1366 17.4432 45.1372 16.9635 45.1381C16.4989 45.1389 16.0342 45.1394 15.5695 45.1396C15.3941 45.1397 15.2187 45.14 15.0432 45.1404C14.0938 45.1426 13.1456 45.1331 12.1966 45.1013C12.1128 45.0988 12.029 45.0962 11.9427 45.0936C8.58035 44.9675 5.41099 43.5764 3.09028 41.1374C2.34179 40.3187 1.75133 39.4035 1.24485 38.4208C1.22026 38.374 1.19567 38.3272 1.17034 38.279C0.433409 36.8632 -0.0698915 35.1654 0.00792225 33.5607Z" fill="black"/>
<path d="M73.9145 33.5607C73.9401 33.5607 73.9656 33.5607 73.9919 33.5607C74.1207 36.2613 72.7047 39.0422 70.9321 41.0009C70.8958 41.0405 70.8596 41.08 70.8222 41.1208C70.7681 41.18 70.7681 41.18 70.713 41.2404C68.4962 43.6338 65.2522 44.88 62.0294 45.0118C61.947 45.0148 61.8645 45.0178 61.7796 45.0209C61.6918 45.0241 61.604 45.0274 61.5136 45.0307C60.5833 45.0627 59.6536 45.0649 58.7229 45.0626C58.5438 45.0625 58.3646 45.0624 58.1855 45.0623C57.7217 45.062 57.2578 45.0613 56.7939 45.0604C56.3176 45.0596 55.8412 45.0593 55.3648 45.0589C54.4357 45.058 53.5066 45.0567 52.5775 45.0551C52.5692 45.0005 52.561 44.946 52.5525 44.8898C52.5142 44.6387 52.4752 44.3878 52.4362 44.1369C52.4232 44.0511 52.4102 43.9653 52.3969 43.8769C52.1324 42.19 51.4339 40.7777 50.4129 39.4236C50.3618 39.3473 50.3108 39.2709 50.2582 39.1922C50.6115 39.0578 50.9194 39.013 51.2965 38.9972C51.3526 38.9947 51.4087 38.9921 51.4665 38.9894C51.5887 38.9839 51.7109 38.9786 51.8332 38.9736C52.1717 38.9596 52.5102 38.9429 52.8487 38.9267C52.9205 38.9233 52.9923 38.9199 53.0663 38.9164C63.2922 38.7157 63.2922 38.7157 73.3828 34.4313C73.6038 34.163 73.7668 33.8742 73.9145 33.5607Z" fill="black"/>
<path d="M18.5619 0.00328105C18.7453 0.00227274 18.9287 0.00154131 19.1121 0.000964487C19.1634 0.000653923 19.2148 0.000343359 19.2677 2.33827e-05C19.7335 -0.00107195 20.1876 0.0363983 20.6492 0.094889C20.7727 0.110374 20.7727 0.110374 20.8986 0.126172C25.2718 0.705505 29.8174 2.90005 32.5788 6.4303C32.6489 6.52455 32.7185 6.61912 32.7866 6.71477C32.5253 6.93485 32.2398 7.05135 31.9265 7.17763C30.7704 7.66604 29.7703 8.34441 28.8439 9.18336C28.7319 9.27987 28.7319 9.27987 28.6177 9.37833C27.5746 10.2897 26.7429 11.454 26.0608 12.6548C25.6672 12.6106 25.3669 12.4233 25.0268 12.2354C23.5583 11.4498 22.0353 10.8802 20.4547 10.3673C20.4047 10.3509 20.3548 10.3344 20.3032 10.3174C19.9375 10.1991 19.5715 10.1171 19.1916 10.0595C18.9057 9.879 18.8694 9.57611 18.7938 9.2605C18.4008 7.49119 18.5348 5.60116 18.546 3.80221C18.5484 3.37288 18.5494 2.94355 18.5506 2.51421C18.553 1.67723 18.557 0.840256 18.5619 0.00328105Z" fill="black"/>
<path d="M54.8085 0.0013787C54.8618 0.00151601 54.9151 0.00165333 54.97 0.00179481C55.1002 0.00215008 55.2304 0.00269582 55.3606 0.00328092C55.366 0.935564 55.3701 1.86784 55.3726 2.80014C55.3738 3.23326 55.3754 3.66636 55.3781 4.09948C55.4009 7.91948 55.4009 7.91948 55.1287 9.33765C55.1199 9.39602 55.1111 9.4544 55.1021 9.51454C55.0716 9.68206 55.0716 9.68206 54.974 9.95479C54.7764 10.0788 54.7764 10.0788 54.5256 10.1452C54.4333 10.1714 54.341 10.1975 54.2459 10.2245C54.1968 10.2371 54.1477 10.2497 54.0972 10.2627C53.8908 10.3159 53.6862 10.3751 53.4814 10.434C53.378 10.4637 53.2745 10.4931 53.1709 10.5223C51.5272 10.9866 49.9039 11.7164 48.4255 12.5665C48.2482 12.6548 48.2482 12.6548 48.0163 12.6548C47.901 12.4847 47.8011 12.3183 47.7022 12.1389C46.9246 10.7945 45.868 9.568 44.6147 8.64336C44.538 8.58667 44.4613 8.52999 44.3822 8.47159C43.3908 7.76425 42.357 7.21007 41.2132 6.79191C41.2588 6.53789 41.3371 6.40533 41.5137 6.21846C41.5601 6.16891 41.6066 6.11936 41.6545 6.06831C41.705 6.01593 41.7555 5.96355 41.8075 5.90958C41.8597 5.85491 41.9119 5.80024 41.9657 5.74392C45.2708 2.31476 49.9736 -0.0225191 54.8085 0.0013787Z" fill="black"/>
<path d="M2.40448 32.8664C3.65982 32.8502 4.91513 32.8379 6.17056 32.8305C6.75355 32.8269 7.33647 32.822 7.91942 32.814C8.42785 32.8071 8.93622 32.8026 9.44469 32.8011C9.71367 32.8002 9.9825 32.7981 10.2514 32.793C10.5525 32.7874 10.8535 32.7873 11.1546 32.7876C11.2426 32.7851 11.3306 32.7826 11.4213 32.78C12.134 32.7882 12.4954 33.0756 12.9957 33.5607C13.0781 33.6331 13.1608 33.705 13.2442 33.7762C13.3137 33.8371 13.3832 33.8981 13.4547 33.9609C14.3704 34.7452 15.3913 35.4124 16.4226 36.0346C16.5441 36.1082 16.6641 36.1842 16.7838 36.2607C16.7838 36.2862 16.7838 36.3117 16.7838 36.3379C16.0567 36.3569 15.3415 36.2858 14.6192 36.2125C14.5524 36.2058 14.4856 36.1991 14.4168 36.1922C4.77318 35.2136 4.77318 35.2136 2.55909 33.0979C2.50807 33.0215 2.45705 32.9451 2.40448 32.8664Z" fill="black"/>
<path d="M63.9616 32.7882C64.2277 32.7931 64.4939 32.7935 64.7602 32.7944C65.2629 32.7968 65.7655 32.8031 66.2681 32.8109C66.841 32.8195 67.4138 32.8237 67.9867 32.8276C69.1639 32.8356 70.3409 32.8492 71.518 32.8664C71.518 32.9173 71.518 32.9683 71.518 33.0207C68.4867 35.7706 61.3227 36.31 57.3706 36.2607C57.6717 36.0079 57.9867 35.8068 58.3224 35.605C59.1371 35.1061 59.8884 34.5285 60.6369 33.9368C60.6941 33.8926 60.7514 33.8485 60.8104 33.803C61.0092 33.6431 61.0092 33.6431 61.166 33.4426C61.9221 32.6213 62.9173 32.7659 63.9616 32.7882Z" fill="black"/>
</svg>