<svg width="177" height="38" viewBox="0 0 177 38" fill="none" xmlns="http://www.w3.org/2000/svg">
<path d="M12.4043 11.443C13.2639 9.8366 14.738 8.58483 16.5275 7.97569C14.4885 5.55051 11.3714 4 7.87816 4V7.56924C7.87816 8.33664 7.96201 9.08518 8.12137 9.80684C9.641 10.1621 11.0793 10.7177 12.4043 11.443Z" fill="#94B704"/>
<path d="M25.595 11.4432C24.724 9.81539 23.2219 8.55165 21.4001 7.95174C23.4394 5.54031 26.5475 4 30.0293 4V7.56924C30.0293 8.34482 29.9436 9.10115 29.7809 9.82993C28.2971 10.186 26.8918 10.7334 25.595 11.4432Z" fill="#94B704"/>
<path d="M19 18.0499C17.7264 15.6779 15.8568 13.6506 13.582 12.1516C14.5233 10.2128 16.3847 8.90763 18.9977 8.90763C21.6119 8.90763 23.4736 10.2138 24.4146 12.1539C22.1414 13.6527 20.273 15.6791 19 18.0499Z" fill="#94B704"/>
<path d="M38 11.1384V10.6923H33.8293C26.6775 10.6923 20.6724 15.4186 19 21.804C17.3276 15.4186 11.3225 10.6923 4.17073 10.6923H0V11.1384C0 19.0481 6.47854 25.501 14.6056 25.8469C14.2106 26.0215 13.8406 26.2194 13.5 26.438C12.0754 27.3524 11.122 28.6646 11.122 30.1744V33H11.5854C13.7116 33 15.6575 32.4477 17.0854 31.5312C17.9152 30.9985 18.5852 30.3309 19 29.5678C19.4148 30.3309 20.0848 30.9985 20.9146 31.5312C22.3425 32.4477 24.2884 33 26.4146 33H26.878V30.1744C26.878 28.6646 25.9246 27.3524 24.5 26.438C24.1594 26.2194 23.7894 26.0215 23.3944 25.8469C31.5215 25.501 38 19.0481 38 11.1384Z" fill="#94B704"/>
<path d="M60.2664 9.0664C61.3272 9.0664 62.4816 9.1288 63.7296 9.2536C64.9776 9.3576 66.1944 9.5864 67.38 9.94L67.068 13.0912C66.1528 13.0704 65.0816 13.0496 63.8544 13.0288C62.6272 13.008 61.4208 12.9976 60.2352 12.9976C59.6528 12.9976 59.1536 13.0184 58.7376 13.06C58.3424 13.0808 58.02 13.164 57.7704 13.3096C57.5208 13.4344 57.344 13.632 57.24 13.9024C57.136 14.1728 57.084 14.5472 57.084 15.0256C57.084 15.7536 57.2504 16.284 57.5832 16.6168C57.9368 16.9496 58.5296 17.2512 59.3616 17.5216L63.5112 18.8632C65.2376 19.4456 66.4336 20.236 67.0992 21.2344C67.7648 22.2328 68.0976 23.5432 68.0976 25.1656C68.0976 26.3928 67.952 27.412 67.6608 28.2232C67.3696 29.0344 66.912 29.6688 66.288 30.1264C65.664 30.584 64.8424 30.9064 63.8232 31.0936C62.804 31.3016 61.556 31.4056 60.0792 31.4056C59.372 31.4056 58.3632 31.3536 57.0528 31.2496C55.7424 31.1664 54.2448 30.9376 52.56 30.5632L52.872 27.1936C54.0992 27.2144 55.16 27.2456 56.0544 27.2872C56.9696 27.308 57.7496 27.3288 58.3944 27.3496C59.0392 27.3496 59.6008 27.3496 60.0792 27.3496C60.9112 27.3496 61.556 27.2976 62.0136 27.1936C62.492 27.0896 62.8248 26.8816 63.012 26.5696C63.1992 26.2576 63.2928 25.8104 63.2928 25.228C63.2928 24.7288 63.22 24.3336 63.0744 24.0424C62.9496 23.7304 62.7312 23.4912 62.4192 23.3248C62.128 23.1376 61.7224 22.9712 61.2024 22.8256L56.8344 21.328C55.1912 20.7248 54.0264 19.9344 53.34 18.9568C52.6536 17.9792 52.3104 16.6896 52.3104 15.088C52.3104 13.84 52.456 12.8312 52.7472 12.0616C53.0592 11.2712 53.5272 10.6576 54.1512 10.2208C54.796 9.784 55.6176 9.4824 56.616 9.316C57.6352 9.1496 58.852 9.0664 60.2664 9.0664ZM80.014 15.1816C82.6141 15.1816 84.4757 15.6288 85.5989 16.5232C86.7429 17.3968 87.3148 18.7072 87.3148 20.4544C87.3357 21.8688 86.9821 22.9296 86.2541 23.6368C85.5261 24.3232 84.2677 24.6664 82.4789 24.6664H73.8676V22.0768H81.1997C81.9069 22.0768 82.3541 21.9312 82.5413 21.64C82.7493 21.328 82.8533 20.9016 82.8533 20.3608C82.8325 19.6328 82.6141 19.1336 82.1981 18.8632C81.8029 18.572 81.1269 18.4264 80.1701 18.4264C79.3173 18.4264 78.6517 18.5408 78.1733 18.7696C77.6949 18.9984 77.362 19.4352 77.1748 20.08C76.9876 20.7248 76.894 21.6608 76.894 22.888C76.894 24.1776 77.0084 25.176 77.2373 25.8832C77.466 26.5696 77.8508 27.048 78.3917 27.3184C78.9533 27.5888 79.7229 27.724 80.7005 27.724C81.4077 27.724 82.2813 27.7032 83.3212 27.6616C84.3821 27.5992 85.4429 27.5056 86.5037 27.3808L86.9405 30.22C86.3373 30.5112 85.6509 30.74 84.8813 30.9064C84.1117 31.0728 83.3213 31.1872 82.5101 31.2496C81.6989 31.3328 80.9189 31.3744 80.1701 31.3744C78.2149 31.3744 76.634 31.0936 75.4276 30.532C74.242 29.9496 73.3788 29.0656 72.838 27.88C72.318 26.6944 72.058 25.176 72.058 23.3248C72.058 21.3072 72.3284 19.7056 72.8692 18.52C73.41 17.3344 74.2628 16.4816 75.4276 15.9616C76.5924 15.4416 78.1212 15.1816 80.014 15.1816ZM96.6578 15.5872V30.2824C96.6578 31.2184 96.4914 32.1232 96.1586 32.9968C95.8466 33.8912 95.389 34.692 94.7858 35.3992C94.2034 36.1064 93.4962 36.6784 92.6642 37.1152L90.1058 35.1184C90.813 34.328 91.3122 33.5584 91.6034 32.8096C91.8946 32.0608 92.0402 31.2184 92.0402 30.2824V15.5872H96.6578ZM95.3162 8.6296C96.2106 8.6296 96.6578 9.0872 96.6578 10.0024V11.6872C96.6578 12.6232 96.2106 13.0912 95.3162 13.0912H93.2882C92.3938 13.0912 91.9466 12.6232 91.9466 11.6872V10.0024C91.9466 9.0872 92.3938 8.6296 93.2882 8.6296H95.3162ZM109.398 15.1816C111.998 15.1816 113.86 15.6288 114.983 16.5232C116.127 17.3968 116.699 18.7072 116.699 20.4544C116.72 21.8688 116.366 22.9296 115.638 23.6368C114.91 24.3232 113.652 24.6664 111.863 24.6664H103.252V22.0768H110.584C111.291 22.0768 111.738 21.9312 111.925 21.64C112.133 21.328 112.237 20.9016 112.237 20.3608C112.217 19.6328 111.998 19.1336 111.582 18.8632C111.187 18.572 110.511 18.4264 109.554 18.4264C108.701 18.4264 108.036 18.5408 107.557 18.7696C107.079 18.9984 106.746 19.4352 106.559 20.08C106.372 20.7248 106.278 21.6608 106.278 22.888C106.278 24.1776 106.393 25.176 106.621 25.8832C106.85 26.5696 107.235 27.048 107.776 27.3184C108.337 27.5888 109.107 27.724 110.085 27.724C110.792 27.724 111.665 27.7032 112.705 27.6616C113.766 27.5992 114.827 27.5056 115.888 27.3808L116.325 30.22C115.721 30.5112 115.035 30.74 114.265 30.9064C113.496 31.0728 112.705 31.1872 111.894 31.2496C111.083 31.3328 110.303 31.3744 109.554 31.3744C107.599 31.3744 106.018 31.0936 104.812 30.532C103.626 29.9496 102.763 29.0656 102.222 27.88C101.702 26.6944 101.442 25.176 101.442 23.3248C101.442 21.3072 101.713 19.7056 102.253 18.52C102.794 17.3344 103.647 16.4816 104.812 15.9616C105.977 15.4416 107.505 15.1816 109.398 15.1816ZM132.001 15.1816C134.913 15.1816 136.369 16.6064 136.369 19.456V31H131.751V20.8912C131.751 20.2048 131.627 19.7368 131.377 19.4872C131.127 19.2168 130.701 19.0816 130.098 19.0816C129.432 19.0816 128.746 19.2168 128.039 19.4872C127.331 19.7368 126.458 20.132 125.418 20.6728L125.199 18.0832C126.302 17.1472 127.425 16.4296 128.569 15.9304C129.734 15.4312 130.878 15.1816 132.001 15.1816ZM124.981 15.5872L125.511 18.6448L125.886 19.0504V31H121.268V15.5872H124.981ZM149.71 15.1816C150.999 15.1816 152.091 15.3584 152.986 15.712C153.88 16.0448 154.556 16.6272 155.014 17.4592C155.492 18.2704 155.731 19.3936 155.731 20.8288V31H152.05L151.395 27.6616L151.083 27.1936V20.7976C151.083 20.0696 150.906 19.5392 150.552 19.2064C150.219 18.8736 149.575 18.7072 148.618 18.7072C147.827 18.7072 146.839 18.7384 145.654 18.8008C144.468 18.8424 143.251 18.9048 142.003 18.988L141.567 15.9304C142.315 15.7848 143.179 15.66 144.156 15.556C145.134 15.452 146.111 15.3688 147.089 15.3064C148.067 15.2232 148.94 15.1816 149.71 15.1816ZM153.828 21.5152L153.797 24.1048L146.933 24.136C146.371 24.136 145.966 24.2712 145.716 24.5416C145.487 24.812 145.373 25.176 145.373 25.6336V26.3824C145.373 26.9024 145.519 27.308 145.81 27.5992C146.101 27.8696 146.569 28.0048 147.214 28.0048C147.755 28.0048 148.337 27.8904 148.961 27.6616C149.606 27.4328 150.24 27.1104 150.864 26.6944C151.488 26.2784 152.039 25.7896 152.518 25.228V27.2248C152.331 27.5368 152.05 27.932 151.675 28.4104C151.322 28.868 150.864 29.3256 150.303 29.7832C149.741 30.22 149.086 30.5944 148.337 30.9064C147.588 31.2184 146.735 31.3744 145.779 31.3744C144.843 31.3744 144 31.208 143.251 30.8752C142.503 30.5424 141.91 30.0536 141.473 29.4088C141.036 28.764 140.818 27.9632 140.818 27.0064V25.4152C140.818 24.188 141.234 23.2312 142.066 22.5448C142.898 21.8584 144.042 21.5152 145.498 21.5152H153.828ZM175.834 15.5872L171.809 20.9536C171.622 21.2448 171.383 21.5256 171.091 21.796C170.8 22.0664 170.561 22.264 170.374 22.3888V22.5136C170.561 22.6176 170.8 22.836 171.091 23.1688C171.383 23.5016 171.622 23.8344 171.809 24.1672L176.364 31H171.216L165.943 22.3264L170.686 15.5872H175.834ZM165.538 9.16L165.569 18.1768C165.569 18.9048 165.527 19.612 165.444 20.2984C165.361 20.9848 165.236 21.6608 165.07 22.3264C165.215 22.9712 165.33 23.6368 165.413 24.3232C165.496 24.9888 165.538 25.6128 165.538 26.1952V31H160.92V9.16H165.538ZM167.691 21.016V23.824H164.103V21.016H167.691Z" fill="#94B704"/>
</svg>
