<svg width="258" height="94" viewBox="0 0 258 94" fill="none" xmlns="http://www.w3.org/2000/svg">
<path d="M14.7884 27.8928C17.287 27.8928 19.2787 28.1011 20.7635 28.5175C22.2483 28.9079 23.3176 29.6106 23.9715 30.6256C24.6255 31.6407 24.9554 33.0721 24.9613 34.92C24.9675 36.846 24.5948 38.3165 23.8432 39.3315C23.0916 40.3205 21.8312 40.8931 20.0619 41.0493L20.0626 41.2835C22.2234 41.4657 23.7352 42.1684 24.598 43.3916C25.4607 44.5889 25.8955 46.2676 25.9024 48.4278C25.9084 50.2757 25.5616 51.7071 24.8621 52.7222C24.1887 53.7372 23.1369 54.4529 21.7067 54.8693C20.2765 55.2597 18.4292 55.4549 16.1649 55.4549C14.239 55.4549 12.5342 55.4419 11.0506 55.4159C9.59307 55.4159 8.2396 55.3899 6.99015 55.3378C5.76673 55.2858 4.51724 55.2207 3.24169 55.1426L3.84859 49.599C4.52536 49.625 5.83979 49.651 7.79188 49.6771C9.74396 49.7031 12.0213 49.7161 14.624 49.7161C15.4048 49.7161 16.0032 49.638 16.4191 49.4819C16.835 49.3257 17.1073 49.0264 17.2361 48.5839C17.3908 48.1415 17.4669 47.5168 17.4643 46.71C17.4616 45.8772 17.3815 45.2395 17.2239 44.7971C17.0664 44.3546 16.7791 44.0553 16.3622 43.8992C15.9713 43.743 15.3724 43.6649 14.5656 43.6649H3.79055L3.77469 38.7069H14.4716C15.1223 38.7069 15.6166 38.6418 15.9545 38.5117C16.3185 38.3815 16.565 38.1343 16.6939 37.7699C16.8228 37.3795 16.8861 36.833 16.8839 36.1302C16.8816 35.4275 16.8149 34.907 16.6837 34.5686C16.5524 34.2043 16.3043 33.957 15.9395 33.8269C15.5748 33.6968 15.054 33.6317 14.3773 33.6317C12.7376 33.6317 11.3062 33.6317 10.0829 33.6317C8.85959 33.6057 7.75345 33.6057 6.76452 33.6317C5.77551 33.6317 4.78662 33.6707 3.79786 33.7488L3.15548 28.2052C4.32634 28.1011 5.47131 28.036 6.59037 28.01C7.70935 27.9579 8.91951 27.9319 10.2208 27.9319C11.5481 27.9059 13.0706 27.8928 14.7884 27.8928ZM11.432 28.2052L11.5182 55.1426H3.24169L3.15548 28.2052H11.432ZM52.5862 28.2052L52.6368 44.0163C52.646 46.8792 52.2759 49.1695 51.5267 50.8873C50.8033 52.579 49.597 53.8023 47.9077 54.557C46.2444 55.3118 44.0073 55.6892 41.1964 55.6892C38.1513 55.6892 35.7166 55.3118 33.8923 54.557C32.0941 53.8023 30.7888 52.579 29.9766 50.8873C29.1903 49.1695 28.7925 46.8792 28.7834 44.0163L28.7328 28.2052H37.2045L37.2551 44.0163C37.2596 45.4477 37.3543 46.5539 37.539 47.3347C37.7497 48.1155 38.1028 48.662 38.5983 48.9743C39.1197 49.2606 39.8359 49.4038 40.7469 49.4038C41.6578 49.4038 42.3601 49.2606 42.8536 48.9743C43.3472 48.662 43.6838 48.1155 43.8634 47.3347C44.0692 46.5539 44.1697 45.4477 44.1651 44.0163L44.1145 28.2052H52.5862ZM80.3467 28.2052L71.311 47.1395H63.1907L54.0337 28.2052H62.7397L66.1633 36.6768C66.3993 37.2494 66.5705 37.874 66.6768 38.5507C66.7831 39.2274 66.8892 39.865 66.9952 40.4637H67.5027C67.6049 39.865 67.707 39.2274 67.8089 38.5507C67.9368 37.848 68.104 37.2103 68.3103 36.6378L71.6408 28.2052H80.3467ZM71.4908 42.3376L71.5318 55.1426H63.0601L63.0191 42.3376H71.4908ZM113.918 28.2052L113.995 52.2146C114.001 54.1666 113.028 55.1426 111.076 55.1426H107.836C106.951 55.1426 106.286 54.9344 105.843 54.518C105.425 54.1016 104.993 53.4899 104.548 52.6831L98.6628 43.4307C98.2963 42.754 97.9556 42.0252 97.6408 41.2445C97.3519 40.4376 97.089 39.6308 96.8522 38.824H96.5789C96.7117 39.6308 96.8054 40.4637 96.8602 41.3225C96.941 42.1554 96.9826 42.9622 96.9851 43.743L97.0216 55.1426H89.2136L89.1367 31.1331C89.1305 29.1812 90.1034 28.2052 92.0554 28.2052H95.2957C96.1806 28.2052 96.8319 28.4134 97.2497 28.8298C97.6674 29.2462 98.1118 29.8578 98.5829 30.6647L104.233 39.4877C104.599 40.1383 104.953 40.8541 105.294 41.6349C105.661 42.4156 106.002 43.2355 106.317 44.0944H106.59C106.483 43.2615 106.39 42.4417 106.309 41.6349C106.254 40.828 106.226 40.0212 106.223 39.2144L106.149 28.2052H113.918ZM129.699 27.6586C132.016 27.6586 133.968 27.8798 135.557 28.3223C137.172 28.7387 138.476 29.4674 139.468 30.5085C140.461 31.5496 141.181 32.981 141.629 34.8029C142.077 36.5987 142.306 38.8891 142.315 41.6739C142.324 44.4327 142.11 46.723 141.673 48.5449C141.237 50.3668 140.525 51.7982 139.54 52.8393C138.554 53.8803 137.255 54.6221 135.643 55.0645C134.057 55.481 132.105 55.6892 129.789 55.6892C127.499 55.6892 125.546 55.481 123.931 55.0645C122.342 54.6221 121.051 53.8803 120.059 52.8393C119.066 51.7982 118.346 50.3668 117.898 48.5449C117.45 46.723 117.221 44.4327 117.212 41.6739C117.203 38.8891 117.417 36.5987 117.854 34.8029C118.29 32.981 119.002 31.5496 119.987 30.5085C120.973 29.4674 122.259 28.7387 123.845 28.3223C125.458 27.8798 127.409 27.6586 129.699 27.6586ZM129.719 33.944C128.756 33.944 128.015 34.1522 127.496 34.5686C126.977 34.9851 126.615 35.7529 126.41 36.872C126.206 37.9911 126.107 39.5918 126.113 41.6739C126.12 43.756 126.229 45.3566 126.441 46.4758C126.653 47.5949 127.02 48.3627 127.541 48.7791C128.063 49.1956 128.806 49.4038 129.769 49.4038C130.732 49.4038 131.473 49.1956 131.992 48.7791C132.511 48.3627 132.873 47.5949 133.078 46.4758C133.282 45.3566 133.381 43.756 133.375 41.6739C133.368 39.5918 133.259 37.9911 133.047 36.872C132.835 35.7529 132.468 34.9851 131.947 34.5686C131.425 34.1522 130.682 33.944 129.719 33.944ZM181.708 28.2052L178.429 52.8783C178.328 53.555 178.004 54.1016 177.459 54.518C176.914 54.9344 176.277 55.1426 175.548 55.1426H168.364C167.636 55.1426 166.984 54.9344 166.41 54.518C165.863 54.1016 165.548 53.555 165.468 52.8783L163.586 38.0041C163.506 37.3535 163.438 36.7028 163.384 36.0522C163.356 35.3755 163.315 34.7118 163.261 34.0611H162.597C162.573 34.7118 162.536 35.3755 162.486 36.0522C162.436 36.7288 162.374 37.3925 162.298 38.0432L160.549 52.8783C160.473 53.555 160.15 54.1016 159.578 54.518C159.033 54.9344 158.396 55.1426 157.667 55.1426H150.445C149.716 55.1426 149.078 54.9344 148.53 54.518C147.982 54.1016 147.655 53.555 147.549 52.8783L144.112 28.2052H152.467L153.886 44.719C153.94 45.3697 153.982 46.0724 154.01 46.8271C154.038 47.5559 154.054 48.3497 154.057 49.2086H154.681C154.783 48.5319 154.885 47.7901 154.987 46.9833C155.114 46.1505 155.216 45.3827 155.292 44.68L157.043 30.7037C157.118 29.9489 157.416 29.3503 157.935 28.9079C158.48 28.4394 159.13 28.2052 159.885 28.2052H165.936C166.691 28.2052 167.329 28.4394 167.851 28.9079C168.373 29.3503 168.687 29.9489 168.794 30.7037L170.674 44.758C170.754 45.4608 170.847 46.2025 170.954 46.9833C171.061 47.7641 171.167 48.5059 171.273 49.2086H171.898C171.896 48.4798 171.919 47.7251 171.969 46.9443C172.018 46.1635 172.055 45.4477 172.079 44.7971L173.353 28.2052H181.708Z" fill="#080330"/>
<line x1="232.729" y1="3.49054" x2="212.965" y2="90.5444" stroke="#080330" stroke-width="30"/>
</svg>
