<svg width="301" height="301" viewBox="0 0 301 301" fill="none" xmlns="http://www.w3.org/2000/svg">
<g filter="url(#filter0_d_676_454)">
<mask id="path-1-inside-1_676_454" fill="white">
<path d="M3.67848 4.30229C3.54517 4.41554 3.4155 4.52877 3.28943 4.64201C3.06826 4.86569 2.8471 5.07554 2.62593 5.27158C-1.19661 9.11481 -0.845793 12.9581 3.67848 16.8013C8.58312 20.9677 8.58312 25.134 3.67848 29.3003C-1.22616 33.4667 -1.22616 37.633 3.67848 41.7994C8.58312 45.9657 8.58312 50.132 3.67848 54.2984C-1.22616 58.4647 -1.22616 62.6311 3.67848 66.7974C8.58312 70.9637 8.58312 75.1301 3.67848 79.2964C-1.22616 83.4628 -1.22616 87.6291 3.67848 91.7954C8.58312 95.9618 8.58312 100.128 3.67848 104.294C-1.22616 108.461 -1.22616 112.627 3.67848 116.793C8.58312 120.96 8.58312 125.126 3.67848 129.293C-1.22615 133.459 -1.22615 137.625 3.6785 141.792C8.58313 145.958 8.58313 150.124 3.6785 154.291C-1.22615 158.457 -1.22615 162.623 3.6785 166.79C8.58313 170.956 8.58313 175.122 3.6785 179.289C-1.22615 183.455 -1.22615 187.621 3.6785 191.788C8.58313 195.954 8.58313 200.12 3.6785 204.287C-1.22615 208.453 -1.22615 212.619 3.6785 216.786C8.58313 220.952 8.58313 225.118 3.6785 229.285C-1.22615 233.451 -1.22615 237.617 3.6785 241.784C8.58313 245.95 8.58313 250.117 3.6785 254.283C-1.22615 258.449 -1.22615 262.615 3.6785 266.782C8.58313 270.948 8.58313 275.115 3.6785 279.281C-0.564512 282.885 -1.1369 286.489 1.96135 290.094C2.66964 290.633 3.37796 291.314 4.08626 292.136C4.68904 292.68 5.2085 293.223 5.64465 293.766C9.31943 297.071 12.9942 296.56 16.669 292.234C20.8353 287.33 25.0017 287.33 29.168 292.234C33.3343 297.139 37.5007 297.139 41.667 292.234C45.8334 287.33 49.9997 287.33 54.1661 292.234C58.3324 297.139 62.4987 297.139 66.6651 292.234C70.8314 287.33 74.9978 287.33 79.1641 292.234C83.3304 297.139 87.4968 297.139 91.6631 292.234C95.8295 287.33 99.9958 287.33 104.162 292.234C108.329 297.139 112.495 297.139 116.661 292.234C120.828 287.33 124.994 287.33 129.16 292.234C133.327 297.139 137.493 297.139 141.659 292.234C145.826 287.33 149.992 287.33 154.158 292.234C158.325 297.139 162.491 297.139 166.657 292.234C170.824 287.33 174.99 287.33 179.156 292.234C183.323 297.139 187.489 297.139 191.655 292.234C195.822 287.33 199.988 287.33 204.154 292.234C208.321 297.139 212.487 297.139 216.653 292.234C220.82 287.33 224.986 287.33 229.152 292.234C233.319 297.139 237.485 297.139 241.651 292.234C245.818 287.33 249.984 287.33 254.15 292.234C258.317 297.139 262.483 297.139 266.65 292.234C270.816 287.33 274.982 287.33 279.149 292.234C283.315 297.139 287.481 297.139 291.648 292.234C293.551 289.993 292.643 291.417 294.278 288.965C296.103 286.227 296.878 283.472 293.869 280.916C288.965 276.749 288.965 272.583 293.869 268.417C298.774 264.25 298.774 260.084 293.869 255.918C288.965 251.751 288.965 247.585 293.869 243.419C298.774 239.252 298.774 235.086 293.869 230.92C288.965 226.753 288.965 222.587 293.869 218.421C298.774 214.254 298.774 210.088 293.869 205.922C288.965 201.755 288.965 197.589 293.869 193.423C298.774 189.256 298.774 185.09 293.869 180.924C288.965 176.757 288.965 172.591 293.869 168.425C298.774 164.258 298.774 160.092 293.869 155.926C288.965 151.759 288.965 147.593 293.869 143.426C298.774 139.26 298.774 135.094 293.869 130.927C288.965 126.761 288.965 122.595 293.869 118.428C298.774 114.262 298.774 110.096 293.869 105.929C288.965 101.763 288.965 97.5967 293.869 93.4303C298.774 89.264 298.774 85.0977 293.869 80.9313C288.965 76.765 288.965 72.5986 293.869 68.4323C298.774 64.2659 298.774 60.0996 293.869 55.9332C288.965 51.7669 288.965 47.6006 293.869 43.4342C298.774 39.2679 298.774 35.1015 293.869 30.9352C288.965 26.7689 288.965 22.6025 293.869 18.4362C298.774 14.2699 298.774 10.1035 293.869 5.93717C293.193 5.36298 292.61 4.78877 292.121 4.21458C291.963 4.04291 291.805 3.86422 291.648 3.67849C287.481 -1.22616 283.315 -1.22616 279.149 3.67849C274.982 8.58312 270.816 8.58312 266.65 3.67849C262.483 -1.22616 258.317 -1.22616 254.15 3.67849C249.984 8.58312 245.818 8.58312 241.651 3.67849C237.485 -1.22616 233.319 -1.22616 229.152 3.67849C224.986 8.58312 220.82 8.58312 216.653 3.67849C212.487 -1.22616 208.321 -1.22616 204.154 3.67849C199.988 8.58312 195.822 8.58312 191.655 3.67849C187.489 -1.22616 183.323 -1.22616 179.156 3.67849C174.99 8.58312 170.824 8.58312 166.657 3.67849C162.491 -1.22616 158.325 -1.22616 154.158 3.67849C149.992 8.58312 145.826 8.58312 141.659 3.67849C137.493 -1.22616 133.327 -1.22616 129.16 3.67849C124.994 8.58312 120.828 8.58312 116.661 3.67849C112.495 -1.22616 108.329 -1.22616 104.162 3.67849C99.9958 8.58312 95.8295 8.58312 91.6631 3.67849C87.4968 -1.22616 83.3304 -1.22616 79.1641 3.67849C74.9978 8.58312 70.8314 8.58312 66.6651 3.67849C62.4987 -1.22616 58.3324 -1.22616 54.1661 3.67849C49.9997 8.58312 45.8334 8.58312 41.667 3.67849C37.5007 -1.22616 33.3343 -1.22616 29.168 3.67849C25.0017 8.58312 20.8353 8.58312 16.669 3.67849C13.1179 -0.501905 9.56676 -1.11921 6.01565 1.82656C5.42902 2.6518 4.64995 3.47706 3.67848 4.30229Z"/>
</mask>
<path d="M3.67848 4.30229C3.54517 4.41554 3.4155 4.52877 3.28943 4.64201C3.06826 4.86569 2.8471 5.07554 2.62593 5.27158C-1.19661 9.11481 -0.845793 12.9581 3.67848 16.8013C8.58312 20.9677 8.58312 25.134 3.67848 29.3003C-1.22616 33.4667 -1.22616 37.633 3.67848 41.7994C8.58312 45.9657 8.58312 50.132 3.67848 54.2984C-1.22616 58.4647 -1.22616 62.6311 3.67848 66.7974C8.58312 70.9637 8.58312 75.1301 3.67848 79.2964C-1.22616 83.4628 -1.22616 87.6291 3.67848 91.7954C8.58312 95.9618 8.58312 100.128 3.67848 104.294C-1.22616 108.461 -1.22616 112.627 3.67848 116.793C8.58312 120.96 8.58312 125.126 3.67848 129.293C-1.22615 133.459 -1.22615 137.625 3.6785 141.792C8.58313 145.958 8.58313 150.124 3.6785 154.291C-1.22615 158.457 -1.22615 162.623 3.6785 166.79C8.58313 170.956 8.58313 175.122 3.6785 179.289C-1.22615 183.455 -1.22615 187.621 3.6785 191.788C8.58313 195.954 8.58313 200.12 3.6785 204.287C-1.22615 208.453 -1.22615 212.619 3.6785 216.786C8.58313 220.952 8.58313 225.118 3.6785 229.285C-1.22615 233.451 -1.22615 237.617 3.6785 241.784C8.58313 245.95 8.58313 250.117 3.6785 254.283C-1.22615 258.449 -1.22615 262.615 3.6785 266.782C8.58313 270.948 8.58313 275.115 3.6785 279.281C-0.564512 282.885 -1.1369 286.489 1.96135 290.094C2.66964 290.633 3.37796 291.314 4.08626 292.136C4.68904 292.68 5.2085 293.223 5.64465 293.766C9.31943 297.071 12.9942 296.56 16.669 292.234C20.8353 287.33 25.0017 287.33 29.168 292.234C33.3343 297.139 37.5007 297.139 41.667 292.234C45.8334 287.33 49.9997 287.33 54.1661 292.234C58.3324 297.139 62.4987 297.139 66.6651 292.234C70.8314 287.33 74.9978 287.33 79.1641 292.234C83.3304 297.139 87.4968 297.139 91.6631 292.234C95.8295 287.33 99.9958 287.33 104.162 292.234C108.329 297.139 112.495 297.139 116.661 292.234C120.828 287.33 124.994 287.33 129.16 292.234C133.327 297.139 137.493 297.139 141.659 292.234C145.826 287.33 149.992 287.33 154.158 292.234C158.325 297.139 162.491 297.139 166.657 292.234C170.824 287.33 174.99 287.33 179.156 292.234C183.323 297.139 187.489 297.139 191.655 292.234C195.822 287.33 199.988 287.33 204.154 292.234C208.321 297.139 212.487 297.139 216.653 292.234C220.82 287.33 224.986 287.33 229.152 292.234C233.319 297.139 237.485 297.139 241.651 292.234C245.818 287.33 249.984 287.33 254.15 292.234C258.317 297.139 262.483 297.139 266.65 292.234C270.816 287.33 274.982 287.33 279.149 292.234C283.315 297.139 287.481 297.139 291.648 292.234C293.551 289.993 292.643 291.417 294.278 288.965C296.103 286.227 296.878 283.472 293.869 280.916C288.965 276.749 288.965 272.583 293.869 268.417C298.774 264.25 298.774 260.084 293.869 255.918C288.965 251.751 288.965 247.585 293.869 243.419C298.774 239.252 298.774 235.086 293.869 230.92C288.965 226.753 288.965 222.587 293.869 218.421C298.774 214.254 298.774 210.088 293.869 205.922C288.965 201.755 288.965 197.589 293.869 193.423C298.774 189.256 298.774 185.09 293.869 180.924C288.965 176.757 288.965 172.591 293.869 168.425C298.774 164.258 298.774 160.092 293.869 155.926C288.965 151.759 288.965 147.593 293.869 143.426C298.774 139.26 298.774 135.094 293.869 130.927C288.965 126.761 288.965 122.595 293.869 118.428C298.774 114.262 298.774 110.096 293.869 105.929C288.965 101.763 288.965 97.5967 293.869 93.4303C298.774 89.264 298.774 85.0977 293.869 80.9313C288.965 76.765 288.965 72.5986 293.869 68.4323C298.774 64.2659 298.774 60.0996 293.869 55.9332C288.965 51.7669 288.965 47.6006 293.869 43.4342C298.774 39.2679 298.774 35.1015 293.869 30.9352C288.965 26.7689 288.965 22.6025 293.869 18.4362C298.774 14.2699 298.774 10.1035 293.869 5.93717C293.193 5.36298 292.61 4.78877 292.121 4.21458C291.963 4.04291 291.805 3.86422 291.648 3.67849C287.481 -1.22616 283.315 -1.22616 279.149 3.67849C274.982 8.58312 270.816 8.58312 266.65 3.67849C262.483 -1.22616 258.317 -1.22616 254.15 3.67849C249.984 8.58312 245.818 8.58312 241.651 3.67849C237.485 -1.22616 233.319 -1.22616 229.152 3.67849C224.986 8.58312 220.82 8.58312 216.653 3.67849C212.487 -1.22616 208.321 -1.22616 204.154 3.67849C199.988 8.58312 195.822 8.58312 191.655 3.67849C187.489 -1.22616 183.323 -1.22616 179.156 3.67849C174.99 8.58312 170.824 8.58312 166.657 3.67849C162.491 -1.22616 158.325 -1.22616 154.158 3.67849C149.992 8.58312 145.826 8.58312 141.659 3.67849C137.493 -1.22616 133.327 -1.22616 129.16 3.67849C124.994 8.58312 120.828 8.58312 116.661 3.67849C112.495 -1.22616 108.329 -1.22616 104.162 3.67849C99.9958 8.58312 95.8295 8.58312 91.6631 3.67849C87.4968 -1.22616 83.3304 -1.22616 79.1641 3.67849C74.9978 8.58312 70.8314 8.58312 66.6651 3.67849C62.4987 -1.22616 58.3324 -1.22616 54.1661 3.67849C49.9997 8.58312 45.8334 8.58312 41.667 3.67849C37.5007 -1.22616 33.3343 -1.22616 29.168 3.67849C25.0017 8.58312 20.8353 8.58312 16.669 3.67849C13.1179 -0.501905 9.56676 -1.11921 6.01565 1.82656C5.42902 2.6518 4.64995 3.47706 3.67848 4.30229Z" fill="#DCD489"/>
<path d="M3.67848 4.30229C3.54517 4.41554 3.4155 4.52877 3.28943 4.64201C3.06826 4.86569 2.8471 5.07554 2.62593 5.27158C-1.19661 9.11481 -0.845793 12.9581 3.67848 16.8013C8.58312 20.9677 8.58312 25.134 3.67848 29.3003C-1.22616 33.4667 -1.22616 37.633 3.67848 41.7994C8.58312 45.9657 8.58312 50.132 3.67848 54.2984C-1.22616 58.4647 -1.22616 62.6311 3.67848 66.7974C8.58312 70.9637 8.58312 75.1301 3.67848 79.2964C-1.22616 83.4628 -1.22616 87.6291 3.67848 91.7954C8.58312 95.9618 8.58312 100.128 3.67848 104.294C-1.22616 108.461 -1.22616 112.627 3.67848 116.793C8.58312 120.96 8.58312 125.126 3.67848 129.293C-1.22615 133.459 -1.22615 137.625 3.6785 141.792C8.58313 145.958 8.58313 150.124 3.6785 154.291C-1.22615 158.457 -1.22615 162.623 3.6785 166.79C8.58313 170.956 8.58313 175.122 3.6785 179.289C-1.22615 183.455 -1.22615 187.621 3.6785 191.788C8.58313 195.954 8.58313 200.12 3.6785 204.287C-1.22615 208.453 -1.22615 212.619 3.6785 216.786C8.58313 220.952 8.58313 225.118 3.6785 229.285C-1.22615 233.451 -1.22615 237.617 3.6785 241.784C8.58313 245.95 8.58313 250.117 3.6785 254.283C-1.22615 258.449 -1.22615 262.615 3.6785 266.782C8.58313 270.948 8.58313 275.115 3.6785 279.281C-0.564512 282.885 -1.1369 286.489 1.96135 290.094C2.66964 290.633 3.37796 291.314 4.08626 292.136C4.68904 292.68 5.2085 293.223 5.64465 293.766C9.31943 297.071 12.9942 296.56 16.669 292.234C20.8353 287.33 25.0017 287.33 29.168 292.234C33.3343 297.139 37.5007 297.139 41.667 292.234C45.8334 287.33 49.9997 287.33 54.1661 292.234C58.3324 297.139 62.4987 297.139 66.6651 292.234C70.8314 287.33 74.9978 287.33 79.1641 292.234C83.3304 297.139 87.4968 297.139 91.6631 292.234C95.8295 287.33 99.9958 287.33 104.162 292.234C108.329 297.139 112.495 297.139 116.661 292.234C120.828 287.33 124.994 287.33 129.16 292.234C133.327 297.139 137.493 297.139 141.659 292.234C145.826 287.33 149.992 287.33 154.158 292.234C158.325 297.139 162.491 297.139 166.657 292.234C170.824 287.33 174.99 287.33 179.156 292.234C183.323 297.139 187.489 297.139 191.655 292.234C195.822 287.33 199.988 287.33 204.154 292.234C208.321 297.139 212.487 297.139 216.653 292.234C220.82 287.33 224.986 287.33 229.152 292.234C233.319 297.139 237.485 297.139 241.651 292.234C245.818 287.33 249.984 287.33 254.15 292.234C258.317 297.139 262.483 297.139 266.65 292.234C270.816 287.33 274.982 287.33 279.149 292.234C283.315 297.139 287.481 297.139 291.648 292.234C293.551 289.993 292.643 291.417 294.278 288.965C296.103 286.227 296.878 283.472 293.869 280.916C288.965 276.749 288.965 272.583 293.869 268.417C298.774 264.25 298.774 260.084 293.869 255.918C288.965 251.751 288.965 247.585 293.869 243.419C298.774 239.252 298.774 235.086 293.869 230.92C288.965 226.753 288.965 222.587 293.869 218.421C298.774 214.254 298.774 210.088 293.869 205.922C288.965 201.755 288.965 197.589 293.869 193.423C298.774 189.256 298.774 185.09 293.869 180.924C288.965 176.757 288.965 172.591 293.869 168.425C298.774 164.258 298.774 160.092 293.869 155.926C288.965 151.759 288.965 147.593 293.869 143.426C298.774 139.26 298.774 135.094 293.869 130.927C288.965 126.761 288.965 122.595 293.869 118.428C298.774 114.262 298.774 110.096 293.869 105.929C288.965 101.763 288.965 97.5967 293.869 93.4303C298.774 89.264 298.774 85.0977 293.869 80.9313C288.965 76.765 288.965 72.5986 293.869 68.4323C298.774 64.2659 298.774 60.0996 293.869 55.9332C288.965 51.7669 288.965 47.6006 293.869 43.4342C298.774 39.2679 298.774 35.1015 293.869 30.9352C288.965 26.7689 288.965 22.6025 293.869 18.4362C298.774 14.2699 298.774 10.1035 293.869 5.93717C293.193 5.36298 292.61 4.78877 292.121 4.21458C291.963 4.04291 291.805 3.86422 291.648 3.67849C287.481 -1.22616 283.315 -1.22616 279.149 3.67849C274.982 8.58312 270.816 8.58312 266.65 3.67849C262.483 -1.22616 258.317 -1.22616 254.15 3.67849C249.984 8.58312 245.818 8.58312 241.651 3.67849C237.485 -1.22616 233.319 -1.22616 229.152 3.67849C224.986 8.58312 220.82 8.58312 216.653 3.67849C212.487 -1.22616 208.321 -1.22616 204.154 3.67849C199.988 8.58312 195.822 8.58312 191.655 3.67849C187.489 -1.22616 183.323 -1.22616 179.156 3.67849C174.99 8.58312 170.824 8.58312 166.657 3.67849C162.491 -1.22616 158.325 -1.22616 154.158 3.67849C149.992 8.58312 145.826 8.58312 141.659 3.67849C137.493 -1.22616 133.327 -1.22616 129.16 3.67849C124.994 8.58312 120.828 8.58312 116.661 3.67849C112.495 -1.22616 108.329 -1.22616 104.162 3.67849C99.9958 8.58312 95.8295 8.58312 91.6631 3.67849C87.4968 -1.22616 83.3304 -1.22616 79.1641 3.67849C74.9978 8.58312 70.8314 8.58312 66.6651 3.67849C62.4987 -1.22616 58.3324 -1.22616 54.1661 3.67849C49.9997 8.58312 45.8334 8.58312 41.667 3.67849C37.5007 -1.22616 33.3343 -1.22616 29.168 3.67849C25.0017 8.58312 20.8353 8.58312 16.669 3.67849C13.1179 -0.501905 9.56676 -1.11921 6.01565 1.82656C5.42902 2.6518 4.64995 3.47706 3.67848 4.30229Z" stroke="#080330" stroke-width="2" mask="url(#path-1-inside-1_676_454)"/>
</g>
<defs>
<filter id="filter0_d_676_454" x="0" y="0" width="300.548" height="300.913" filterUnits="userSpaceOnUse" color-interpolation-filters="sRGB">
<feFlood flood-opacity="0" result="BackgroundImageFix"/>
<feColorMatrix in="SourceAlpha" type="matrix" values="0 0 0 0 0 0 0 0 0 0 0 0 0 0 0 0 0 0 127 0" result="hardAlpha"/>
<feOffset dx="3" dy="5"/>
<feComposite in2="hardAlpha" operator="out"/>
<feColorMatrix type="matrix" values="0 0 0 0 0.0313726 0 0 0 0 0.0117647 0 0 0 0 0.188235 0 0 0 1 0"/>
<feBlend mode="normal" in2="BackgroundImageFix" result="effect1_dropShadow_676_454"/>
<feBlend mode="normal" in="SourceGraphic" in2="effect1_dropShadow_676_454" result="shape"/>
</filter>
</defs>
</svg>
