<svg width="258" height="236" viewBox="0 0 258 236" fill="none" xmlns="http://www.w3.org/2000/svg">
<path fill-rule="evenodd" clip-rule="evenodd" d="M134.556 85.0219C134.556 85.0219 128.513 80.9227 129.587 63.9935C129.587 63.9935 120.029 68.6374 109.601 60.7852L107.196 84.8265C107.196 84.8265 114.426 93.3521 122.007 92.5253C129.587 91.6985 134.556 85.0219 134.556 85.0219Z" fill="#F8F6E9"/>
<path fill-rule="evenodd" clip-rule="evenodd" d="M129.355 63.479C123.176 66.4814 116.722 65.4454 109.923 60.3254C109.582 60.0685 109.101 60.2914 109.057 60.7266L106.652 84.7678C106.636 84.9255 106.685 85.0829 106.785 85.2019C111.713 91.0124 116.812 93.6631 122.064 93.0902C127.269 92.5226 131.587 89.941 134.989 85.3694C135.184 85.1071 135.123 84.7277 134.855 84.5465C131.042 81.9601 129.429 75.1305 130.133 64.0309C130.161 63.5996 129.732 63.2957 129.355 63.479ZM107.766 84.6353L110.05 61.8071L110.502 62.1247C116.772 66.4318 122.855 67.4037 128.702 65.0084L128.988 64.8873L128.974 65.1479C128.465 75.34 129.979 81.9664 133.608 85.0072L133.769 85.1375L133.509 85.4643C130.495 89.1724 126.801 91.3132 122.407 91.9046L121.949 91.9603C117.094 92.4899 112.319 90.0081 107.607 84.4511L107.766 84.6353Z" fill="#080330"/>
<path fill-rule="evenodd" clip-rule="evenodd" d="M121.987 65.5574C133.033 65.5574 141.987 55.6999 141.987 43.5382C141.987 31.3765 133.033 21.5179 121.987 21.5179C110.941 21.5179 101.987 31.3765 101.987 43.5382C101.987 55.6999 110.941 65.5574 121.987 65.5574Z" fill="#F8F6E9"/>
<path fill-rule="evenodd" clip-rule="evenodd" d="M121.987 22.086C132.713 22.086 141.44 31.7095 141.44 43.5383C141.44 55.3671 132.713 64.9894 121.987 64.9894C111.261 64.9894 102.534 55.3671 102.534 43.5383C102.534 31.7095 111.261 22.086 121.987 22.086ZM121.987 66.1256C133.317 66.1256 142.535 55.9931 142.535 43.5383C142.535 31.0823 133.317 20.9499 121.987 20.9499C110.657 20.9499 101.44 31.0823 101.44 43.5383C101.44 55.9931 110.657 66.1256 121.987 66.1256Z" fill="#080330"/>
<path fill-rule="evenodd" clip-rule="evenodd" d="M127.506 50.3832C127.53 50.3832 127.552 50.382 127.576 50.3786L131.111 49.9348C131.277 49.9139 131.426 49.8207 131.519 49.6786C131.613 49.5342 131.642 49.3584 131.599 49.1918L130.529 44.9829C130.447 44.665 130.132 44.474 129.824 44.559C129.516 44.6417 129.332 44.969 129.414 45.2857L130.316 48.8331L127.438 49.1941C127.121 49.2349 126.896 49.5319 126.934 49.8591C126.97 50.1608 127.219 50.3832 127.506 50.3832Z" fill="#080330"/>
<path fill-rule="evenodd" clip-rule="evenodd" d="M121.582 42.736C121.582 43.8157 122.113 44.689 122.769 44.689C123.426 44.689 123.957 43.8157 123.957 42.736C123.957 41.6576 123.426 40.7831 122.769 40.7831C122.113 40.7831 121.582 41.6576 121.582 42.736Z" fill="#080330"/>
<path fill-rule="evenodd" clip-rule="evenodd" d="M133.112 42.736C133.112 43.8157 133.644 44.689 134.301 44.689C134.957 44.689 135.488 43.8157 135.488 42.736C135.488 41.6576 134.957 40.7831 134.301 40.7831C133.644 40.7831 133.112 41.6576 133.112 42.736Z" fill="#080330"/>
<path fill-rule="evenodd" clip-rule="evenodd" d="M119.807 38.0879C119.941 38.0879 120.074 38.0402 120.182 37.9435C121.931 36.3947 123.92 36.4086 123.945 36.4144C124.269 36.4353 124.526 36.1582 124.533 35.8297C124.539 35.5003 124.288 35.2301 123.971 35.2219C123.874 35.2148 121.525 35.1822 119.432 37.0409C119.19 37.2541 119.162 37.6303 119.37 37.8807C119.484 38.0169 119.645 38.0879 119.807 38.0879Z" fill="#080330"/>
<path fill-rule="evenodd" clip-rule="evenodd" d="M137.263 38.0878C137.425 38.0878 137.587 38.0168 137.7 37.8793C137.908 37.6301 137.881 37.2539 137.638 37.0397C135.545 35.1832 133.2 35.2171 133.098 35.2218C132.78 35.2298 132.53 35.5 132.537 35.8296C132.543 36.1581 132.813 36.4376 133.124 36.4143C133.135 36.4305 135.138 36.3933 136.888 37.9445C136.996 38.0401 137.129 38.0878 137.263 38.0878Z" fill="#080330"/>
<path fill-rule="evenodd" clip-rule="evenodd" d="M127.446 57.3628C129.672 57.3628 131.337 56.2332 131.363 56.2157C131.627 56.0305 131.697 55.6638 131.521 55.3901C131.343 55.1152 130.986 55.043 130.721 55.2246C130.579 55.3237 127.205 57.5818 123.891 54.8147C123.643 54.6075 123.281 54.6494 123.081 54.9045C122.88 55.1594 122.918 55.5367 123.166 55.7417C124.641 56.9739 126.139 57.3628 127.446 57.3628Z" fill="#080330"/>
<path fill-rule="evenodd" clip-rule="evenodd" d="M134.556 85.0219C134.556 85.0219 128.513 80.9227 129.587 63.9935C129.587 63.9935 120.029 68.6374 109.601 60.7852L107.196 84.8265C107.196 84.8265 114.426 93.3521 122.007 92.5253C129.587 91.6985 134.556 85.0219 134.556 85.0219Z" fill="#F8F6E9"/>
<path fill-rule="evenodd" clip-rule="evenodd" d="M129.355 63.479C123.176 66.4814 116.722 65.4454 109.923 60.3254C109.582 60.0685 109.101 60.2914 109.057 60.7266L106.652 84.7678C106.636 84.9255 106.685 85.0829 106.785 85.2019C111.713 91.0124 116.812 93.6631 122.064 93.0902C127.269 92.5226 131.587 89.941 134.989 85.3694C135.184 85.1071 135.123 84.7277 134.855 84.5465C131.042 81.9601 129.429 75.1305 130.133 64.0309C130.161 63.5996 129.732 63.2957 129.355 63.479ZM107.766 84.6353L110.05 61.8071L110.502 62.1247C116.772 66.4318 122.855 67.4037 128.702 65.0084L128.988 64.8873L128.974 65.1479C128.465 75.34 129.979 81.9664 133.608 85.0072L133.769 85.1375L133.509 85.4643C130.495 89.1724 126.801 91.3132 122.407 91.9046L121.949 91.9603C117.094 92.4899 112.319 90.0081 107.607 84.4511L107.766 84.6353Z" fill="#080330"/>
<path fill-rule="evenodd" clip-rule="evenodd" d="M95.7421 53.0255C95.8066 53.1301 95.869 53.2391 95.9358 53.3437C95.8701 53.2391 95.8066 53.1312 95.7421 53.0255ZM70.9341 32.0117C80.6841 -2.97365 110.357 16.3108 110.357 16.3119C110.357 16.3119 130.705 -12.6574 149.145 8.02687C167.586 28.7111 134.968 29.094 134.968 29.094L133.306 28.6747H112.366C110.341 28.6747 108.639 30.2518 108.409 32.3412L107.354 41.9329C106.269 41.7193 105.064 41.8567 103.619 43.6167C103.083 44.27 102.704 45.096 102.709 45.9527C102.725 48.1853 104.473 49.9895 106.626 49.9895C106.756 49.9895 106.879 49.9623 107.006 49.9498L106.573 59.9233C106.287 59.9233 106.004 59.9085 105.725 59.8881L105.742 59.9233L108.653 61.4083C106.271 77.2444 86.6191 76.0208 86.6191 76.0208C86.6191 76.0208 61.184 66.9995 70.9341 32.0117Z" fill="black"/>
<path fill-rule="evenodd" clip-rule="evenodd" d="M86.7297 75.4447C88.0649 75.5061 105.559 75.9401 108.033 61.7378L105.506 60.4505C101.583 60.0926 98.1192 57.7657 95.5364 53.7641C95.5233 53.7425 95.5101 53.7209 95.497 53.6993C95.1435 53.1483 94.8042 52.5699 94.4858 51.9565C91.4729 46.1574 90.9837 38.9233 93.1418 32.1108C93.2841 31.6665 93.4308 31.2189 93.584 30.7735C93.6496 30.5803 93.723 30.3883 93.7919 30.1952C93.8817 29.9418 93.9692 29.6884 94.0644 29.4351C94.1301 29.2624 94.2023 29.0908 94.2702 28.9192C94.3774 28.6477 94.4814 28.3739 94.5952 28.1046C94.6543 27.9637 94.72 27.8262 94.7813 27.6865C94.9115 27.3888 95.0395 27.09 95.1796 26.7969C95.2442 26.6594 95.3164 26.5265 95.3843 26.3901C95.5287 26.0981 95.6699 25.8061 95.8253 25.5186C95.8965 25.3846 95.9774 25.2573 96.0519 25.1255C96.2117 24.8415 96.3692 24.5574 96.54 24.2813C96.6242 24.1461 96.7162 24.0155 96.8037 23.8825C96.9755 23.6178 97.1463 23.3497 97.3312 23.0929C97.4253 22.9588 97.5326 22.8327 97.6311 22.7021C97.8193 22.4521 98.0043 22.2021 98.2057 21.9613C98.3118 21.834 98.4289 21.7158 98.5394 21.592C98.7463 21.3579 98.9499 21.1216 99.1709 20.8989C99.2924 20.7751 99.4281 20.6615 99.554 20.541C99.7772 20.3286 99.9961 20.115 100.232 19.9139C100.373 19.7957 100.526 19.69 100.671 19.5753C100.911 19.3855 101.146 19.1935 101.401 19.0163C101.559 18.9061 101.732 18.8084 101.895 18.705C102.153 18.5379 102.408 18.3686 102.682 18.2141C102.859 18.1141 103.053 18.0289 103.237 17.9358C103.515 17.7937 103.787 17.6472 104.08 17.5188C104.28 17.4302 104.496 17.3586 104.703 17.2779C105.001 17.1609 105.293 17.0393 105.607 16.9371C105.829 16.8632 106.069 16.8087 106.298 16.7439C106.617 16.653 106.931 16.5564 107.267 16.4803C107.514 16.4246 107.78 16.3871 108.036 16.3394C108.349 16.2803 108.651 16.211 108.978 16.1656C105.629 14.2977 95.1041 9.19964 85.7152 12.9241C79.0919 15.5475 74.2995 22.0249 71.4715 32.1721C62.2413 65.2952 85.2731 74.8778 86.7297 75.4447ZM102.151 45.9563C102.144 45.0315 102.515 44.068 103.194 43.2408C104.602 41.5241 105.853 41.2071 106.863 41.2832L107.854 32.2744C108.117 29.8907 110.056 28.0944 112.366 28.0944H133.306C133.35 28.0944 133.395 28.1001 133.438 28.1114L135.03 28.5136C136.169 28.4875 150.994 28.0114 153.785 21.2784C155.135 18.0198 153.437 13.6944 148.735 8.42136C144.164 3.29263 139.081 0.844148 133.617 1.19068C121.293 1.93488 110.913 16.5076 110.809 16.6553C110.804 16.6621 110.795 16.6632 110.789 16.6701C110.725 16.7541 110.645 16.8223 110.544 16.8598L109.456 17.2586C109.418 17.2722 109.378 17.2825 109.339 17.2859C99.8801 18.5073 96.4754 25.3073 94.2045 32.4744C92.1405 38.9847 92.6012 45.8847 95.4697 51.4066C95.7794 52.0031 96.1077 52.5654 96.4524 53.0994C98.8612 56.8181 102.111 58.9916 105.75 59.2723C105.786 59.2757 105.821 59.2927 105.856 59.3064C105.918 59.3109 105.978 59.3257 106.042 59.3291L106.42 50.5647C104.065 50.4522 102.169 48.4286 102.151 45.9563ZM70.3979 31.8506C73.6264 20.2661 79.3633 13.2967 87.4476 11.1346C97.4669 8.46113 107.763 14.0705 110.208 15.5555C112.038 13.082 121.735 0.748711 133.549 0.0329156C139.358 -0.329527 144.745 2.23825 149.556 7.63171C154.584 13.2729 156.352 18.0187 154.811 21.7363C151.639 29.3908 135.654 29.6669 134.974 29.6748C134.922 29.6737 134.881 29.6703 134.836 29.6578L133.238 29.2544H112.366C110.624 29.2544 109.162 30.6099 108.964 32.4062L107.91 41.999C107.891 42.1581 107.811 42.3046 107.685 42.3989C107.561 42.4955 107.402 42.5307 107.25 42.5023C106.362 42.3296 105.362 42.3876 104.044 43.993C103.54 44.6077 103.264 45.303 103.268 45.9484C103.283 47.8572 104.789 49.4092 106.627 49.4092C106.686 49.4092 106.742 49.4001 106.798 49.391L106.954 49.3717C107.114 49.3626 107.275 49.4137 107.392 49.5285C107.509 49.6455 107.572 49.808 107.565 49.9761L107.133 59.9494C107.133 59.9608 107.126 59.971 107.125 59.9824L108.899 60.8868C109.119 60.9981 109.243 61.2447 109.206 61.4969C108.196 68.2072 103.944 72.9485 96.9077 75.2061C93.0324 76.4525 89.3629 76.6241 87.6271 76.6241C87.0121 76.6241 86.6389 76.6025 86.5863 76.5991C86.536 76.5957 86.4857 76.5854 86.4386 76.5695C86.1792 76.4764 60.6128 66.9631 70.3979 31.8506Z" fill="#080330"/>
<path fill-rule="evenodd" clip-rule="evenodd" d="M110.176 16.4631C110.176 16.4631 121.393 6.92603 110.176 2.38584C98.9596 -2.15435 110.176 16.4631 110.176 16.4631ZM110.176 16.4754C110.176 16.4754 100.461 5.30219 96.6329 17.1526C92.8036 29.0018 110.176 16.4754 110.176 16.4754Z" fill="#F8F6E9"/>
<path fill-rule="evenodd" clip-rule="evenodd" d="M97.1255 21.3753C98.8918 22.7524 105.307 19.1836 109.313 16.3852C108.053 15.0968 104.377 11.6871 101.24 12.3722C99.4751 12.7539 98.1028 14.4253 97.1627 17.3362C96.6833 18.8189 96.2882 20.7231 97.1255 21.3753ZM114.554 7.3957C114.272 5.54599 112.731 4.04282 109.974 2.92709C109.106 2.57601 108.083 2.25106 107.27 2.25106C106.767 2.25106 106.344 2.37491 106.09 2.69531C104.682 4.45753 107.805 11.2826 110.304 15.5739C111.606 14.331 115.056 10.685 114.554 7.3957ZM96.1022 16.9669C97.1791 13.6368 98.8316 11.7075 101.014 11.236C103.485 10.6986 106.085 12.1665 107.955 13.6265C106.034 9.92598 103.503 4.11895 105.23 1.95338C106.118 0.84106 107.805 0.803564 110.38 1.84658C113.533 3.12251 115.309 4.92791 115.658 7.21505C116.371 11.8836 110.775 16.7045 110.532 16.9112C110.518 16.9237 110.51 16.9419 110.495 16.951C109.547 17.6361 102.237 22.808 98.1969 22.808C97.5041 22.808 96.9066 22.6558 96.4546 22.3024C95.3394 21.4344 95.2234 19.6892 96.1022 16.9669Z" fill="#080330"/>
<path fill-rule="evenodd" clip-rule="evenodd" d="M60.2659 143.434L51.3826 166.133L0.884519 151.029L16.9799 126.656C35.39 98.7824 65.8517 82.1214 98.407 82.1214H106.308C108.423 86.7468 113.66 90.0292 119.806 90.0508C125.952 90.0292 131.189 86.7468 133.303 82.1214H141.204C173.759 82.1214 207.655 98.2733 226.065 126.147L240.94 150.283L188.14 168.051L179.346 143.434L182.539 168.217L189.425 210.087H50.1864L57.0724 168.216L60.2659 143.434Z" fill="#F8F6E9"/>
<path fill-rule="evenodd" clip-rule="evenodd" d="M188.76 209.506H50.8496L57.624 168.313L60.8208 143.512C60.8569 143.221 60.6818 142.948 60.4093 142.873C60.1335 142.795 59.8522 142.945 59.7461 143.215L51.0521 165.43L1.78414 150.692L17.4418 126.987C35.7545 99.2584 66.0214 82.7031 98.4059 82.7031H105.958C108.332 87.5114 113.721 90.6109 119.804 90.6337C125.89 90.6109 131.28 87.5114 133.651 82.7031H141.204C174.911 82.7031 208.04 99.8867 225.602 126.478L240.078 149.963L188.478 167.327L179.87 143.233C179.772 142.955 179.485 142.802 179.21 142.871C178.932 142.941 178.752 143.217 178.79 143.512L181.984 168.295L188.76 209.506ZM50.1853 210.669H189.424C189.59 210.669 189.746 210.593 189.853 210.462C189.96 210.333 190.004 210.159 189.976 209.99L183.091 168.12L180.566 148.527L187.614 168.253C187.718 168.546 188.027 168.699 188.311 168.605L241.113 150.837C241.278 150.781 241.409 150.649 241.468 150.481C241.526 150.309 241.506 150.122 241.412 149.971L226.536 125.835C208.76 98.921 175.27 81.5408 141.204 81.5408H133.303C133.087 81.5408 132.89 81.6703 132.797 81.8726C130.696 86.4673 125.596 89.4498 119.804 89.4702C114.015 89.4498 108.914 86.4673 106.813 81.8726C106.72 81.6703 106.523 81.5408 106.306 81.5408H98.4059C65.6515 81.5408 35.0399 98.2836 16.517 126.328L0.421609 150.699C0.319829 150.854 0.295755 151.05 0.355947 151.225C0.417234 151.401 0.555125 151.537 0.728041 151.588L51.2261 166.693C51.503 166.778 51.793 166.628 51.9003 166.353L59.1255 147.892L56.5165 168.138L49.6338 209.99C49.6064 210.159 49.6513 210.333 49.7574 210.462C49.8636 210.593 50.0212 210.669 50.1853 210.669Z" fill="#080330"/>
<path fill-rule="evenodd" clip-rule="evenodd" d="M142.421 168.184L171.466 160.6C173.804 159.989 175.223 157.525 174.636 155.097L158.849 89.9417C158.261 87.5137 155.888 86.0412 153.55 86.6514L124.504 94.2365C122.166 94.8466 120.747 97.3099 121.336 99.7379L137.121 164.894C137.709 167.322 140.082 168.795 142.421 168.184Z" fill="#94B704"/>
<path fill-rule="evenodd" clip-rule="evenodd" d="M154.623 87.0945C155.303 87.0945 155.972 87.2842 156.569 87.6557C157.442 88.1988 158.06 89.0601 158.307 90.0837L174.093 155.24C174.604 157.354 173.365 159.503 171.33 160.035L142.285 167.619C141.3 167.877 140.276 167.721 139.403 167.179C138.53 166.638 137.914 165.775 137.665 164.753L121.88 99.5959C121.369 97.4826 122.607 95.3318 124.643 94.8L153.688 87.216C153.997 87.1342 154.311 87.0945 154.623 87.0945ZM141.348 168.905C141.751 168.905 142.157 168.853 142.559 168.749L171.603 161.165C174.237 160.476 175.842 157.691 175.179 154.956L159.394 89.7997C159.072 88.4749 158.273 87.3592 157.145 86.657C156.015 85.9571 154.691 85.7549 153.414 86.0867L124.369 93.6707C121.735 94.3603 120.131 97.1451 120.793 99.8788L136.579 165.037C136.9 166.361 137.699 167.476 138.828 168.178C139.603 168.659 140.468 168.904 141.348 168.905Z" fill="#080330"/>
<path fill-rule="evenodd" clip-rule="evenodd" d="M155.332 94.349C155.67 95.742 154.855 97.1542 153.515 97.5042C152.173 97.8553 150.813 97.0099 150.475 95.617C150.137 94.2252 150.952 92.8117 152.293 92.4618C153.634 92.1107 154.995 92.956 155.332 94.349Z" fill="#F8F6E9"/>
<path fill-rule="evenodd" clip-rule="evenodd" d="M154.788 94.4899C154.915 95.0125 154.838 95.5556 154.572 96.0192C154.305 96.4816 153.881 96.8088 153.378 96.9395C152.873 97.0724 152.351 96.9918 151.906 96.7157C151.459 96.4385 151.144 95.9987 151.018 95.475C150.891 94.9523 150.968 94.4104 151.235 93.9468C151.502 93.4832 151.926 93.1571 152.429 93.0265C153.47 92.7458 154.528 93.4128 154.788 94.4899ZM152.896 98.1666C153.148 98.1666 153.401 98.1336 153.65 98.0666C154.445 97.8609 155.112 97.3451 155.534 96.6157C155.953 95.8863 156.074 95.0318 155.875 94.207C155.463 92.505 153.795 91.4756 152.155 91.8971C151.362 92.1039 150.693 92.6197 150.274 93.3503C149.853 94.0797 149.731 94.9353 149.932 95.759C150.131 96.5827 150.628 97.2781 151.33 97.7144C151.812 98.0132 152.35 98.1666 152.896 98.1666Z" fill="#080330"/>
<path fill-rule="evenodd" clip-rule="evenodd" d="M217.395 142.46C220.105 153.99 220.33 157.219 220.33 157.219L237.411 151.472C237.411 151.472 277.534 209.674 244.214 231.33C210.894 252.984 185.159 166.364 185.159 166.364C185.159 166.364 180.064 161.81 175.251 155.471C175.227 155.3 175.22 155.128 175.178 154.956L167.87 124.79C168.534 123.376 169.177 122.773 169.177 122.773C169.177 122.773 168.549 123.184 167.603 123.691L164.065 109.086C167.434 106.863 172.415 104.84 179.741 103.368C204.934 98.3063 214.686 130.93 217.395 142.46ZM4.63063 152.149L49.591 165.598L46.7335 172.551C46.7335 172.551 76.8023 151.459 86.0128 143.303C95.2234 135.147 101.724 113.493 106.059 106.742C110.393 99.9935 119.603 100.556 122.041 103.438C124.479 106.322 122.583 108.431 122.583 108.431C122.583 108.431 137.482 99.1494 142.9 105.898C148.317 112.648 138.837 119.398 138.837 119.398C138.837 119.398 154.277 112.368 156.737 119.961C159.195 127.554 149.943 131.773 149.943 131.773C151.433 131.386 152.942 132.084 154.141 132.954C155.978 134.289 157.246 136.409 157.347 138.736C157.653 145.76 148.625 147.775 145.7 148.242C151.706 147.646 153.194 154.41 153.194 154.41C154.142 164.115 143.442 163.552 143.442 163.552C120.821 161.443 106.871 173.396 106.871 173.396C106.871 173.396 72.4674 233.86 29.3959 228.236C-13.6766 222.612 4.63063 152.149 4.63063 152.149Z" fill="#F8F6E9"/>
<path fill-rule="evenodd" clip-rule="evenodd" d="M8.58033 214.882C13.2885 222.165 20.3167 226.463 29.4671 227.659C71.6553 233.18 106.048 173.701 106.39 173.1C106.422 173.041 106.465 172.99 106.515 172.947C106.646 172.834 118.692 162.722 138.163 162.722C139.875 162.722 141.647 162.801 143.47 162.972C143.519 162.972 148.427 163.188 151.045 160.324C152.343 158.905 152.879 156.936 152.649 154.541C152.59 154.275 151.24 148.482 146.026 148.781C145.371 148.89 144.94 148.935 144.849 148.944C144.778 148.947 144.71 148.936 144.646 148.916C140.578 149.638 133.821 150.955 129.648 152.4C129.589 152.419 129.529 152.428 129.471 152.428C129.236 152.428 129.017 152.274 128.94 152.032C128.841 151.727 129 151.398 129.293 151.296C135.344 149.202 146.676 147.383 147.805 147.204C151.447 146.278 157.017 144.006 156.788 138.762C156.698 136.708 155.589 134.714 153.819 133.43C152.43 132.422 151.173 132.052 150.079 132.337C150.06 132.342 150.041 132.337 150.021 132.341C150.005 132.343 149.99 132.352 149.973 132.352C149.862 132.36 138.664 133.043 125.132 140.427C125.049 140.472 124.961 140.493 124.873 140.493C124.672 140.493 124.476 140.381 124.376 140.183C124.232 139.899 124.337 139.545 124.611 139.396C137.651 132.28 148.611 131.289 149.801 131.2C150.667 130.777 158.359 126.796 156.206 120.145C155.825 118.971 155.094 118.149 153.971 117.633C149.123 115.405 139.163 119.885 139.063 119.931C139.049 119.937 139.035 119.936 139.02 119.94C139.008 119.945 139 119.954 138.988 119.959C138.873 119.992 127.4 123.347 120.148 129.171C120.047 129.251 119.926 129.291 119.806 129.291C119.64 129.291 119.473 129.215 119.363 129.066C119.173 128.812 119.218 128.447 119.462 128.249C126.68 122.452 137.537 119.176 138.59 118.867C139.183 118.424 143.43 115.118 143.958 111.132C144.186 109.42 143.685 107.784 142.47 106.272C137.421 99.9833 123.016 108.838 122.872 108.928C122.863 108.934 122.853 108.935 122.844 108.94C122.835 108.944 122.83 108.953 122.821 108.957C122.763 108.985 116.984 111.82 111.636 117.016C111.528 117.12 111.39 117.173 111.253 117.173C111.103 117.173 110.954 117.111 110.844 116.989C110.633 116.753 110.644 116.386 110.87 116.166C116.006 111.178 121.372 108.389 122.233 107.959C122.499 107.612 123.491 106.033 121.62 103.822C120.549 102.556 118.011 101.824 115.306 102.014C111.624 102.268 108.424 104.108 106.525 107.064C105.107 109.273 103.434 113.152 101.495 117.642C97.5391 126.81 92.6143 138.223 86.3772 143.746C78.6387 150.599 55.978 166.723 49.0723 171.605C48.942 171.699 48.7833 171.813 48.582 171.951C47.643 172.615 47.087 173.006 47.0465 173.033C46.9458 173.105 46.8287 173.137 46.7127 173.132C44.0763 174.664 39.8048 176.627 35.2225 176.627C34.8034 176.627 34.3809 176.611 33.9574 176.576C33.6499 176.551 33.419 176.271 33.443 175.951C33.4682 175.632 33.7298 175.403 34.046 175.418C38.8866 175.802 43.6254 173.583 46.3592 171.979L48.8282 165.974L5.03226 152.875C3.82404 157.918 -4.384 194.831 8.58033 214.882ZM4.35701 151.643C4.48724 151.566 4.64156 151.551 4.78712 151.591L49.7464 165.039C49.9007 165.085 50.0287 165.198 50.0977 165.347C50.1666 165.499 50.1699 165.672 50.1065 165.825L48.0019 170.947C48.4594 170.637 48.7188 170.437 48.7319 170.427C48.7494 170.413 48.7691 170.41 48.7866 170.399C56.06 165.255 78.0751 149.569 85.6495 142.859C91.695 137.507 96.5629 126.229 100.473 117.166C102.432 112.628 104.123 108.71 105.593 106.42C107.686 103.159 111.199 101.131 115.231 100.854C118.313 100.635 121.153 101.505 122.463 103.054C123.8 104.637 123.965 106.045 123.779 107.072C127.771 104.879 138.653 99.7027 143.331 105.527C144.757 107.303 145.342 109.243 145.068 111.295C144.724 113.875 143.088 116.127 141.624 117.678C145.122 116.451 150.855 114.931 154.423 116.568C155.832 117.215 156.788 118.294 157.267 119.776C159.132 125.535 154.687 129.472 152.012 131.242C152.799 131.451 153.616 131.863 154.461 132.477C156.514 133.967 157.803 136.297 157.908 138.71C158.154 144.376 152.931 146.963 149.013 148.103C152.68 149.646 153.73 154.237 153.752 154.352C154.028 157.173 153.389 159.453 151.854 161.129C148.878 164.38 143.638 164.145 143.393 164.131C122.105 162.136 108.411 172.879 107.301 173.784C105.796 176.37 74.5194 229.182 35.0135 229.182C33.1377 229.182 31.2378 229.062 29.327 228.813C19.8396 227.573 12.5464 223.105 7.64898 215.529C-6.4995 193.643 3.9838 152.413 4.09106 151.998C4.13045 151.848 4.22568 151.719 4.35701 151.643Z" fill="#080330"/>
<path fill-rule="evenodd" clip-rule="evenodd" d="M167.386 124.461C167.337 124.485 167.281 124.512 167.231 124.536L166.952 123.384C168.062 122.813 168.843 122.306 168.874 122.284L168.876 122.282L175.321 118.01C175.438 117.934 175.571 117.913 175.698 117.933C181.98 112.711 191.754 111.939 191.894 111.93C192.212 111.902 192.469 112.151 192.491 112.471C192.512 112.792 192.279 113.07 191.969 113.091C191.78 113.105 172.908 114.587 171.698 127.435C170.852 136.422 171.69 142.222 174.057 143.766C175.255 144.551 176.939 144.272 179.055 142.937C179.088 142.915 179.126 142.909 179.161 142.898C178.745 138.975 179.801 133.842 182.335 127.518C185.994 118.384 198.852 120.875 198.981 120.9C199.284 120.964 199.482 121.267 199.423 121.584C199.364 121.898 199.07 122.099 198.766 122.043C198.646 122.02 186.677 119.71 183.358 127.991C178.582 139.911 179.227 147.295 185.227 149.92C186.317 150.278 189.412 150.884 190.627 149.425C190.662 149.385 190.706 149.357 190.749 149.329C189.34 145.157 189.157 139.577 189.685 135.758C190.862 127.228 203.553 128.09 204.095 128.13C204.403 128.153 204.635 128.431 204.614 128.751C204.591 129.072 204.314 129.316 204.014 129.29C203.89 129.279 191.823 128.462 190.793 135.924C190.024 141.498 190.938 150.88 194.603 153.261C196.078 154.219 197.922 153.935 200.083 152.417C206.181 148.133 200.475 137.368 200.417 137.259C200.266 136.98 200.362 136.625 200.631 136.467C200.902 136.311 201.243 136.41 201.394 136.691C201.488 136.865 202.335 138.465 203.049 140.663C203.107 140.586 203.177 140.519 203.271 140.48C204.318 140.037 204.406 137.536 204.353 136.697C204.333 136.375 204.568 136.099 204.876 136.079C205.185 136.079 205.451 136.3 205.472 136.62C205.498 137.038 205.672 140.721 203.693 141.556C203.624 141.586 203.552 141.599 203.481 141.599C203.423 141.599 203.374 141.568 203.319 141.549C204.4 145.366 204.816 150.497 200.711 153.381C199.185 154.453 197.769 154.989 196.473 154.989C195.595 154.989 194.772 154.742 194.009 154.247C192.808 153.467 191.887 152.124 191.187 150.482C190.327 151.277 189.123 151.517 187.992 151.517C186.408 151.517 184.972 151.055 184.841 151.01C181.828 149.694 180.004 147.377 179.351 144.093C177.952 144.931 176.684 145.366 175.571 145.366C174.794 145.366 174.09 145.163 173.46 144.75C172.659 144.229 172.013 143.373 171.512 142.207L170.466 137.891C170.143 135.122 170.181 131.595 170.583 127.322C170.816 124.854 171.645 122.783 172.839 121.036L169.526 123.233C169.401 123.359 168.457 124.396 167.756 126.706L167.274 124.712C167.311 124.627 167.348 124.54 167.386 124.461Z" fill="#080330"/>
<path fill-rule="evenodd" clip-rule="evenodd" d="M174.636 155.098L174.109 152.925C179.226 160.248 185.429 165.838 185.525 165.923C185.605 165.996 185.665 166.089 185.695 166.193C185.865 166.768 203.041 223.741 226.924 232.963C232.635 235.169 238.353 234.452 243.918 230.836C250.594 226.497 254.738 220.31 256.236 212.444C260.796 188.502 239.668 155.879 237.19 152.158L221.165 157.549C226.26 180.918 232.866 187.235 232.936 187.302C233.168 187.514 233.19 187.882 232.986 188.122C232.876 188.253 232.721 188.319 232.566 188.319C232.434 188.319 232.303 188.272 232.198 188.175C231.896 187.902 225.227 181.598 220.05 157.715C220.04 157.708 220.028 157.708 220.017 157.701C219.875 157.601 219.784 157.44 219.772 157.262C219.77 157.242 219.673 156.047 219.046 152.737C219.005 152.53 218.966 152.33 218.927 152.119C218.492 149.882 217.837 146.791 216.852 142.597C213.743 129.364 203.908 99.1107 179.848 103.941C172.82 105.352 167.379 107.412 163.713 110.017L163.419 108.804C167.186 106.224 172.597 104.212 179.635 102.798C190.683 100.579 200.046 105.142 207.463 116.361C213.373 125.304 216.564 136.466 217.94 142.323C219.149 147.469 219.863 150.955 220.287 153.254C220.494 154.335 220.705 155.392 220.919 156.408L237.238 150.918C237.47 150.84 237.724 150.928 237.867 151.133C238.111 151.488 262.246 186.879 257.335 212.668C255.776 220.861 251.462 227.306 244.512 231.822C240.862 234.194 237.147 235.382 233.404 235.382C231.121 235.382 228.827 234.939 226.532 234.053C216.266 230.089 206.088 217.506 196.283 196.654C189.42 182.061 185.168 168.326 184.672 166.697C183.807 165.912 179.141 161.593 174.73 155.761C174.709 155.54 174.689 155.32 174.636 155.098Z" fill="#080330"/>
</svg>
