<svg width="277" height="212" viewBox="0 0 277 212" fill="none" xmlns="http://www.w3.org/2000/svg">
<g clip-path="url(#clip0_2692_4770)">
<path d="M-301 9C-284.333 -1.66667 -267.667 -1.66667 -251 9C-234.333 19.6667 -217.667 19.6667 -201 9C-184.333 -1.66667 -167.667 -1.66667 -151 9C-134.333 19.6667 -117.667 19.6667 -101 9C-84.3333 -1.66667 -67.6667 -1.66667 -51 9C-34.3333 19.6667 -17.6667 19.6667 -1 9C15.6667 -1.66667 32.3333 -1.66667 49 9C65.6667 19.6667 82.3333 19.6667 99 9C115.667 -1.66667 132.333 -1.66667 149 9C165.667 19.6667 182.333 19.6667 199 9C215.667 -1.66667 232.333 -1.66667 249 9C265.667 19.6667 282.333 19.6667 299 9" stroke="#DCD489" stroke-width="2"/>
<path d="M-301 19C-284.333 8.33333 -267.667 8.33333 -251 19C-234.333 29.6667 -217.667 29.6667 -201 19C-184.333 8.33333 -167.667 8.33333 -151 19C-134.333 29.6667 -117.667 29.6667 -101 19C-84.3333 8.33333 -67.6667 8.33333 -51 19C-34.3333 29.6667 -17.6667 29.6667 -1 19C15.6667 8.33333 32.3333 8.33333 49 19C65.6667 29.6667 82.3333 29.6667 99 19C115.667 8.33333 132.333 8.33333 149 19C165.667 29.6667 182.333 29.6667 199 19C215.667 8.33333 232.333 8.33333 249 19C265.667 29.6667 282.333 29.6667 299 19" stroke="#DCD489" stroke-width="18"/>
<rect width="277" height="199" transform="translate(0 19)" fill="#DCD489"/>
</g>
<defs>
<clipPath id="clip0_2692_4770">
<rect width="277" height="212" fill="white"/>
</clipPath>
</defs>
</svg>
