<svg width="277" height="18" viewBox="0 0 277 18" fill="none" xmlns="http://www.w3.org/2000/svg">
<g clip-path="url(#clip0_893_641)">
<path d="M-1 9C15.6667 -1.66667 32.3333 -1.66667 49 9C65.6667 19.6667 82.3333 19.6667 99 9C115.667 -1.66667 132.333 -1.66667 149 9C165.667 19.6667 182.333 19.6667 199 9C215.667 -1.66667 232.333 -1.66667 249 9C265.667 19.6667 282.333 19.6667 299 9C315.667 -1.66667 332.333 -1.66667 349 9C365.667 19.6667 382.333 19.6667 399 9C415.667 -1.66667 432.333 -1.66667 449 9C465.667 19.6667 482.333 19.6667 499 9C515.667 -1.66667 532.333 -1.66667 549 9C565.667 19.6667 582.333 19.6667 599 9" stroke="#DCD489" stroke-width="2"/>
<path d="M-1 19C15.6667 8.33333 32.3333 8.33333 49 19C65.6667 29.6667 82.3333 29.6667 99 19C115.667 8.33333 132.333 8.33333 149 19C165.667 29.6667 182.333 29.6667 199 19C215.667 8.33333 232.333 8.33333 249 19C265.667 29.6667 282.333 29.6667 299 19C315.667 8.33333 332.333 8.33333 349 19C365.667 29.6667 382.333 29.6667 399 19C415.667 8.33333 432.333 8.33333 449 19C465.667 29.6667 482.333 29.6667 499 19C515.667 8.33333 532.333 8.33333 549 19C565.667 29.6667 582.333 29.6667 599 19" stroke="#DCD489" stroke-width="18"/>
</g>
<defs>
<clipPath id="clip0_893_641">
<rect width="277" height="18" fill="white"/>
</clipPath>
</defs>
</svg>
