<svg width="435" height="231" viewBox="0 0 435 231" fill="none" xmlns="http://www.w3.org/2000/svg">
<g filter="url(#filter0_d_0_1)">
<path d="M8.46825 204.413C4.08623 204.18 0.793039 200.443 1.11271 196.066L14.7728 9.04887C15.0924 4.67231 18.9039 1.3134 23.2859 1.54654L120.085 6.69662C128.849 7.1629 135.436 14.6367 134.796 23.3898L122.294 194.558C121.654 203.311 114.031 210.029 105.267 209.563L8.46825 204.413Z" fill="#DCD489"/>
<path d="M137.005 211.252C128.241 210.785 121.654 203.311 122.294 194.558L134.796 23.3898C135.436 14.6367 143.058 7.9189 151.823 8.38518L423.971 22.8645C428.353 23.0976 431.646 26.8345 431.326 31.2111L417.666 218.229C417.347 222.605 413.535 225.964 409.153 225.731L137.005 211.252Z" fill="#DCD489"/>
<path d="M23.315 1.15031L120.114 6.3005C127.866 6.71296 133.955 12.4752 135.057 19.8129C137.218 12.6487 144.099 7.57674 151.851 7.98916L424 22.4681C428.601 22.7131 432.059 26.6368 431.724 31.232L418.063 218.249C417.728 222.845 413.726 226.372 409.125 226.127L136.976 211.648C129.223 211.235 123.134 205.473 122.032 198.135C119.871 205.299 112.991 210.372 105.238 209.959L8.4393 204.809C3.83818 204.564 0.380326 200.641 0.71598 196.045L14.3762 9.02775C14.7119 4.43237 18.7139 0.90551 23.315 1.15031Z" stroke="black" stroke-width="0.794558"/>
</g>
<circle cx="7.76211" cy="7.76211" r="7.76211" transform="matrix(0.0727509 -0.997348 0.998595 0.0530321 114.894 194.338)" fill="black"/>
<circle cx="7.76211" cy="7.76211" r="7.76211" transform="matrix(0.0727509 -0.997348 0.998595 0.0530321 116.498 171.418)" fill="black"/>
<circle cx="7.76211" cy="7.76211" r="7.76211" transform="matrix(0.0727509 -0.997348 0.998595 0.0530321 118.102 148.497)" fill="black"/>
<circle cx="7.76211" cy="7.76211" r="7.76211" transform="matrix(0.0727509 -0.997348 0.998595 0.0530321 119.706 125.577)" fill="black"/>
<circle cx="7.76211" cy="7.76211" r="7.76211" transform="matrix(0.0727509 -0.997348 0.998595 0.0530321 121.309 102.656)" fill="black"/>
<circle cx="7.76211" cy="7.76211" r="7.76211" transform="matrix(0.0727509 -0.997348 0.998595 0.0530321 122.913 79.7354)" fill="black"/>
<circle cx="7.76211" cy="7.76211" r="7.76211" transform="matrix(0.0727509 -0.997348 0.998595 0.0530321 124.518 56.8145)" fill="black"/>
<circle cx="7.76211" cy="7.76211" r="7.76211" transform="matrix(0.0727509 -0.997348 0.998595 0.0530321 126.121 33.894)" fill="black"/>
<defs>
<filter id="filter0_d_0_1" x="0.295654" y="0.741699" width="434.232" height="229.767" filterUnits="userSpaceOnUse" color-interpolation-filters="sRGB">
<feFlood flood-opacity="0" result="BackgroundImageFix"/>
<feColorMatrix in="SourceAlpha" type="matrix" values="0 0 0 0 0 0 0 0 0 0 0 0 0 0 0 0 0 0 127 0" result="hardAlpha"/>
<feOffset dx="2.38367" dy="3.97279"/>
<feComposite in2="hardAlpha" operator="out"/>
<feColorMatrix type="matrix" values="0 0 0 0 0.0313726 0 0 0 0 0.0117647 0 0 0 0 0.188235 0 0 0 1 0"/>
<feBlend mode="normal" in2="BackgroundImageFix" result="effect1_dropShadow_0_1"/>
<feBlend mode="normal" in="SourceGraphic" in2="effect1_dropShadow_0_1" result="shape"/>
</filter>
</defs>
</svg>
