<svg width="435" height="231" viewBox="0 0 435 231" fill="none" xmlns="http://www.w3.org/2000/svg">
<g filter="url(#filter0_d_0_1)">
<path d="M8.46825 204.413C4.08623 204.18 0.793039 200.443 1.11271 196.066L14.7728 9.04887C15.0924 4.67231 18.9039 1.3134 23.2859 1.54654L120.085 6.69662C128.849 7.1629 135.436 14.6367 134.796 23.3898L122.294 194.558C121.654 203.311 114.031 210.029 105.267 209.563L8.46825 204.413Z" fill="#DCD489"/>
<path d="M137.005 211.252C128.241 210.785 121.654 203.311 122.294 194.558L134.796 23.3898C135.436 14.6367 143.058 7.9189 151.823 8.38518L423.971 22.8645C428.353 23.0976 431.646 26.8345 431.326 31.2111L417.666 218.229C417.347 222.605 413.535 225.964 409.153 225.731L137.005 211.252Z" fill="#DCD489"/>
<path d="M23.315 1.15031L120.114 6.3005C127.866 6.71296 133.955 12.4752 135.057 19.8129C137.218 12.6487 144.099 7.57674 151.851 7.98916L424 22.4681C428.601 22.7131 432.059 26.6368 431.724 31.232L418.063 218.249C417.728 222.845 413.726 226.372 409.125 226.127L136.976 211.648C129.223 211.235 123.134 205.473 122.032 198.135C119.871 205.299 112.991 210.372 105.238 209.959L8.4393 204.809C3.83818 204.564 0.380326 200.641 0.71598 196.045L14.3762 9.02775C14.7119 4.43237 18.7139 0.90551 23.315 1.15031Z" stroke="black" stroke-width="0.794558"/>
</g>
<path d="M35.761 20.2071C37.1574 20.2814 38.2395 20.4726 39.0071 20.7807C39.7757 21.0762 40.3014 21.556 40.5842 22.2202C40.8671 22.8844 40.9659 23.7998 40.8807 24.9663C40.7964 26.1201 40.572 27.0118 40.2073 27.6416C39.8564 28.2593 39.3157 28.6824 38.5853 28.9109C37.8559 29.1266 36.8882 29.2024 35.6821 29.1383C35.0474 29.1045 34.4149 29.039 33.7848 28.9418C33.1556 28.832 32.5655 28.7115 32.0143 28.5804C31.4767 28.4372 31.0154 28.2981 30.6302 28.163C30.2459 28.0153 29.9813 27.8867 29.8363 27.7771L30.0296 25.9163C30.8548 25.9602 31.7117 26.0058 32.6003 26.0531C33.489 26.1004 34.3649 26.147 35.2282 26.1929C35.609 26.2132 35.9038 26.1907 36.1125 26.1254C36.3221 26.0475 36.4728 25.9028 36.5647 25.6913C36.6576 25.4671 36.7188 25.1521 36.7485 24.7464C36.779 24.328 36.7646 24.0026 36.7051 23.7704C36.6456 23.5381 36.517 23.3785 36.3195 23.2916C36.1228 23.1921 35.8341 23.1322 35.4532 23.1119C34.1583 23.043 33.0534 22.9906 32.1385 22.9546C31.2235 22.9187 30.5996 22.9109 30.2667 22.9314L30.1867 20.1015C30.7753 20.0691 31.3244 20.0538 31.8341 20.0554C32.3564 20.0578 32.9223 20.0752 33.5316 20.1076C34.1419 20.1273 34.885 20.1605 35.761 20.2071ZM34.3189 20.3213L33.3604 33.4442L29.2282 33.2244L30.1867 20.1015L34.3189 20.3213ZM45.185 24.527L45.5384 26.4933L45.9026 26.7418L45.3664 34.083L41.3674 33.8702L42.062 24.3609L45.185 24.527ZM49.8317 24.5069L49.2223 28.1403L48.213 28.0866C47.8703 28.0684 47.4817 28.0668 47.0473 28.0819C46.6265 28.0849 46.0691 28.1253 45.3753 28.2029L45.3037 26.0417C45.9693 25.4788 46.6428 25.0692 47.3243 24.8127C48.0057 24.5562 48.6575 24.4445 49.2795 24.4776L49.8317 24.5069ZM55.6824 24.8182C57.4724 24.9135 58.721 25.2663 59.4284 25.8767C60.1357 26.4871 60.455 27.3505 60.3862 28.467C60.334 29.3552 60.0207 29.9813 59.4461 30.3453C58.8842 30.71 57.905 30.8552 56.5086 30.7809L51.3861 30.5084L51.5237 28.6255L55.5226 28.8383C55.9542 28.8612 56.2299 28.8377 56.3497 28.7677C56.4705 28.685 56.5424 28.4852 56.5656 28.1682C56.5878 27.8639 56.526 27.6634 56.3801 27.5665C56.2343 27.4696 55.9773 27.4114 55.6091 27.3918C55.2419 27.3596 54.9598 27.3827 54.7629 27.4614C54.566 27.54 54.4183 27.7294 54.32 28.0297C54.2352 28.3179 54.1696 28.779 54.1233 29.413C54.0807 29.9962 54.0855 30.4547 54.1376 30.7884C54.2024 31.1228 54.3503 31.3661 54.5813 31.5184C54.8123 31.6707 55.1627 31.7594 55.6324 31.7844C56.0132 31.8046 56.5473 31.8203 57.2347 31.8314C57.9348 31.8432 58.6943 31.8264 59.5133 31.7808L59.7 34.1964C59.239 34.401 58.75 34.5532 58.233 34.653C57.7159 34.7528 57.1826 34.8135 56.633 34.8352C56.0961 34.8575 55.542 34.8535 54.9707 34.8231C53.6505 34.7528 52.6039 34.5126 51.8309 34.1023C51.058 33.6921 50.5202 33.1162 50.2175 32.3745C49.9285 31.6209 49.8233 30.7052 49.902 29.6275C49.9937 28.3723 50.2442 27.3864 50.6533 26.6699C51.0634 25.9408 51.6741 25.4323 52.4852 25.1445C53.3091 24.8574 54.3748 24.7487 55.6824 24.8182ZM74.3791 25.813C75.2805 25.8609 75.943 26.1253 76.3666 26.606C76.8039 27.0748 76.9906 27.7466 76.9267 28.6215L76.4072 35.7345L72.4273 35.5227L72.8538 29.684C72.8695 29.4684 72.8358 29.3203 72.7524 29.2395C72.6701 29.146 72.5083 29.0928 72.2671 29.08C72.1528 29.0739 72.0318 29.0738 71.9039 29.0798C71.7887 29.0864 71.6404 29.1103 71.459 29.1515C71.2902 29.1935 71.0684 29.2644 70.7934 29.3643L70.7271 27.3943C71.3292 26.8281 71.9075 26.4133 72.462 26.1501C73.0291 25.8875 73.6682 25.7751 74.3791 25.813ZM64.9527 25.5787L65.2871 27.544L65.6512 27.7925L65.115 35.1337L61.1351 34.9219L61.8297 25.4126L64.9527 25.5787ZM68.7235 25.5121C69.5995 25.5587 70.2493 25.8223 70.673 26.3031C71.0976 26.7712 71.2779 27.4427 71.214 28.3175L70.6945 35.4305L66.8479 35.2259L67.2744 29.3871C67.2901 29.1716 67.25 29.0231 67.154 28.9416C67.0589 28.8474 66.8971 28.7943 66.6686 28.7821C66.5543 28.776 66.4333 28.776 66.3054 28.7819C66.1775 28.7878 66.0229 28.8114 65.8414 28.8527C65.66 28.8939 65.4255 28.9642 65.1378 29.0634L65.0715 27.0934C65.6736 26.5272 66.2519 26.1124 66.8063 25.8492C67.3608 25.5859 67.9999 25.4736 68.7235 25.5121ZM82.7339 26.5248L82.0393 36.0341L78.0594 35.8224L78.754 26.313L82.7339 26.5248ZM81.9094 22.1087C82.6838 22.1499 83.0423 22.5635 82.9849 23.3496L82.9141 24.3196C82.8566 25.1057 82.4407 25.4782 81.6663 25.437L79.9716 25.3468C79.1972 25.3056 78.8387 24.8919 78.8961 24.1058L78.967 23.1359C79.0244 22.3498 79.4403 21.9773 80.2147 22.0185L81.9094 22.1087ZM88.3844 26.8254L87.958 32.6641C87.9431 32.867 87.9892 33.0222 88.096 33.1297C88.2038 33.2245 88.3783 33.2784 88.6195 33.2912C88.8734 33.3047 89.135 33.2995 89.4044 33.2757C89.6747 33.2392 90.0317 33.15 90.4753 33.0081L90.5608 34.9792C89.8698 35.5407 89.1963 35.9503 88.5402 36.2082C87.8842 36.466 87.2007 36.576 86.4898 36.5382C84.6109 36.4382 83.7363 35.5007 83.866 33.7256L84.3855 26.6126L88.3844 26.8254ZM94.5161 27.1516L93.8215 36.661L90.6795 36.4938L90.3261 34.5276L89.9619 34.2791L90.4981 26.9378L94.5161 27.1516ZM108.708 27.6394C109.609 27.6873 110.271 27.9517 110.695 28.4324C111.132 28.9012 111.319 29.573 111.255 30.4479L110.736 37.5609L106.756 37.3491L107.182 31.5104C107.198 31.2948 107.164 31.1467 107.081 31.0659C106.999 30.9724 106.837 30.9192 106.596 30.9064C106.481 30.9003 106.36 30.9002 106.232 30.9062C106.117 30.9128 105.969 30.9367 105.787 30.978C105.619 31.0199 105.397 31.0908 105.122 31.1907L105.056 29.2207C105.658 28.6545 106.236 28.2397 106.79 27.9765C107.358 27.7139 107.997 27.6015 108.708 27.6394ZM99.2812 27.4051L99.6155 29.3704L99.9797 29.6189L99.4435 36.9601L95.4636 36.7483L96.1582 27.239L99.2812 27.4051ZM103.052 27.3385C103.928 27.3851 104.578 27.6488 105.001 28.1295C105.426 28.5976 105.606 29.2691 105.542 30.1439L105.023 37.2569L101.176 37.0523L101.603 31.2135C101.619 30.998 101.578 30.8495 101.482 30.768C101.387 30.6738 101.226 30.6207 100.997 30.6085C100.883 30.6025 100.762 30.6024 100.634 30.6083C100.506 30.6142 100.351 30.6378 100.17 30.6791C99.9885 30.7203 99.7539 30.7906 99.4663 30.8898L99.3999 28.9198C100.002 28.3536 100.58 27.9388 101.135 27.6756C101.689 27.4123 102.328 27.3 103.052 27.3385Z" fill="black"/>
<path d="M28.3872 175.944C29.6821 176.013 30.727 176.189 31.5219 176.473C32.3167 176.758 32.8833 177.201 33.2216 177.805C33.5734 178.396 33.7118 179.206 33.6368 180.233C33.5989 180.753 33.4807 181.236 33.2823 181.684C33.0976 182.12 32.7978 182.473 32.3829 182.743C31.9808 183.015 31.4342 183.17 30.7431 183.21L30.7347 183.324C30.9741 183.362 31.2351 183.452 31.5178 183.595C31.8015 183.724 32.0596 183.942 32.2922 184.247C32.5257 184.539 32.6738 184.955 32.7365 185.493L33.4703 189.579L29.1477 189.349L28.5755 185.405C28.5262 185.033 28.4232 184.786 28.2665 184.663C28.1225 184.541 27.8728 184.47 27.5173 184.451C26.5661 184.388 25.7858 184.34 25.1765 184.308C24.5798 184.276 24.0725 184.242 23.6545 184.207C23.2365 184.172 22.8189 184.131 22.4018 184.084L22.6646 181.272L27.8822 181.549C28.2757 181.57 28.5832 181.549 28.8046 181.484C29.0259 181.419 29.1816 181.294 29.2717 181.108C29.3754 180.91 29.4402 180.633 29.4661 180.278C29.493 179.91 29.4689 179.629 29.394 179.434C29.3317 179.24 29.1954 179.099 28.9852 179.011C28.7749 178.924 28.473 178.87 28.0794 178.849C26.7592 178.779 25.6479 178.726 24.7456 178.69C23.8434 178.655 23.2258 178.648 22.893 178.668L22.7939 175.837C23.3825 175.805 23.9316 175.79 24.4412 175.791C24.9636 175.794 25.5294 175.811 26.1388 175.843C26.7618 175.864 27.5112 175.897 28.3872 175.944ZM26.8499 176.053L25.8914 189.176L21.8354 188.96L22.7939 175.837L26.8499 176.053ZM42.2704 180.272C43.5145 180.338 44.3644 180.829 44.8201 181.744C45.2757 182.659 45.4443 183.928 45.3258 185.551C45.2304 186.857 45.0171 187.858 44.686 188.553C44.3675 189.249 43.9315 189.722 43.3779 189.973C42.8253 190.211 42.1554 190.309 41.3683 190.267C40.6447 190.228 39.9734 190.084 39.3544 189.835C38.7481 189.586 38.274 189.186 37.932 188.633L38.3125 187.088C38.5599 187.19 38.7947 187.291 39.0167 187.392C39.2514 187.494 39.5655 187.555 39.9591 187.576C40.2257 187.59 40.4384 187.557 40.5972 187.476C40.7697 187.384 40.8992 187.181 40.9858 186.867C41.0861 186.541 41.1607 186.043 41.2098 185.371C41.2598 184.686 41.2583 184.183 41.2053 183.862C41.1659 183.529 41.0733 183.314 40.9274 183.217C40.7816 183.12 40.588 183.065 40.3468 183.053C40.0168 183.035 39.7537 183.059 39.5578 183.125C39.3627 183.178 39.1599 183.25 38.9494 183.341L38.5069 181.809C38.6951 181.501 38.9762 181.23 39.3501 180.995C39.7378 180.748 40.1847 180.562 40.6909 180.436C41.198 180.298 41.7245 180.243 42.2704 180.272ZM38.4262 180.297L38.6973 181.819L39.094 182.146L38.6342 188.441L38.5033 188.663C38.5117 189.071 38.5111 189.516 38.5013 190C38.4915 190.483 38.464 190.946 38.4189 191.389L38.2814 193.272L34.2825 193.059L35.2271 180.126L38.4262 180.297Z" fill="black"/>
<path d="M104.355 183.804L102.128 186.817C101.97 187.063 101.769 187.287 101.524 187.491C101.281 187.682 101.086 187.818 100.94 187.899L100.935 187.975C101.069 188.058 101.241 188.233 101.451 188.499C101.661 188.765 101.826 189.034 101.946 189.308L104.023 193.332L99.6238 193.098L97.2284 187.682L99.9756 183.571L104.355 183.804ZM98.0445 179.65L97.6722 184.747C97.637 185.228 97.5691 185.721 97.4686 186.225C97.3681 186.729 97.2318 187.199 97.0597 187.635C97.1317 188.046 97.1881 188.495 97.2291 188.981C97.2837 189.455 97.2976 189.875 97.2707 190.243L97.0721 192.963L93.0731 192.75L94.0456 179.437L98.0445 179.65ZM98.5834 186.666L98.4195 188.91L96.1915 188.792L96.3554 186.548L98.5834 186.666Z" fill="black"/>
<path d="M62.6413 164.414L60.6923 191.097L52.3289 190.652L53.5491 173.946C53.5924 173.353 53.6477 172.774 53.7149 172.208C53.808 171.643 53.9398 171.081 54.1102 170.521L47.8663 171.392L47.2739 166.197L54.2779 163.969L62.6413 164.414Z" fill="black"/>
<path d="M78.1618 164.696C81.0012 164.847 83.2288 165.393 84.8445 166.333C86.4621 167.247 87.5579 168.742 88.1319 170.817C88.7078 172.866 88.8667 175.657 88.6087 179.189C88.3507 182.721 87.786 185.486 86.9145 187.484C86.0448 189.457 84.74 190.824 83 191.585C81.2619 192.321 78.9731 192.613 76.1337 192.462C73.32 192.312 71.1044 191.78 69.4868 190.866C67.8969 189.927 66.814 188.433 66.2382 186.384C65.6642 184.309 65.5061 181.505 65.7641 177.973C66.0221 174.441 66.5859 171.689 67.4556 169.717C68.3271 167.718 69.619 166.351 71.3313 165.614C73.0713 164.852 75.3481 164.546 78.1618 164.696ZM77.6683 170.92C77.0487 170.887 76.5388 170.951 76.1384 171.11C75.7399 171.244 75.4057 171.563 75.1357 172.066C74.8934 172.545 74.683 173.298 74.5044 174.323C74.3535 175.325 74.215 176.689 74.0889 178.416C73.9627 180.144 73.9007 181.525 73.9028 182.56C73.9326 183.571 74.0319 184.34 74.2008 184.867C74.3973 185.369 74.6826 185.72 75.0566 185.922C75.4325 186.097 75.9302 186.201 76.5497 186.234C77.195 186.268 77.7299 186.219 78.1542 186.086C78.5804 185.928 78.9275 185.61 79.1956 185.132C79.4656 184.629 79.676 183.877 79.8269 182.876C80.0055 181.85 80.1578 180.473 80.284 178.746C80.4102 177.019 80.4583 175.649 80.4285 174.638C80.4264 173.603 80.3271 172.834 80.1306 172.332C79.9359 171.804 79.6377 171.452 79.236 171.275C78.8362 171.073 78.3136 170.954 77.6683 170.92Z" fill="black"/>
<rect width="83.4286" height="4.76735" transform="matrix(0.998588 0.0531286 -0.0728476 0.997343 27.8855 37.9956)" fill="black"/>
<circle cx="7.76211" cy="7.76211" r="7.76211" transform="matrix(0.0727509 -0.997348 0.998595 0.0530321 114.894 194.338)" fill="black"/>
<circle cx="7.76211" cy="7.76211" r="7.76211" transform="matrix(0.0727509 -0.997348 0.998595 0.0530321 116.498 171.418)" fill="black"/>
<circle cx="7.76211" cy="7.76211" r="7.76211" transform="matrix(0.0727509 -0.997348 0.998595 0.0530321 118.102 148.497)" fill="black"/>
<circle cx="7.76211" cy="7.76211" r="7.76211" transform="matrix(0.0727509 -0.997348 0.998595 0.0530321 119.706 125.577)" fill="black"/>
<circle cx="7.76211" cy="7.76211" r="7.76211" transform="matrix(0.0727509 -0.997348 0.998595 0.0530321 121.309 102.656)" fill="black"/>
<circle cx="7.76211" cy="7.76211" r="7.76211" transform="matrix(0.0727509 -0.997348 0.998595 0.0530321 122.913 79.7354)" fill="black"/>
<circle cx="7.76211" cy="7.76211" r="7.76211" transform="matrix(0.0727509 -0.997348 0.998595 0.0530321 124.518 56.8145)" fill="black"/>
<circle cx="7.76211" cy="7.76211" r="7.76211" transform="matrix(0.0727509 -0.997348 0.998595 0.0530321 126.121 33.894)" fill="black"/>
<defs>
<filter id="filter0_d_0_1" x="0.295654" y="0.741699" width="434.232" height="229.767" filterUnits="userSpaceOnUse" color-interpolation-filters="sRGB">
<feFlood flood-opacity="0" result="BackgroundImageFix"/>
<feColorMatrix in="SourceAlpha" type="matrix" values="0 0 0 0 0 0 0 0 0 0 0 0 0 0 0 0 0 0 127 0" result="hardAlpha"/>
<feOffset dx="2.38367" dy="3.97279"/>
<feComposite in2="hardAlpha" operator="out"/>
<feColorMatrix type="matrix" values="0 0 0 0 0.0313726 0 0 0 0 0.0117647 0 0 0 0 0.188235 0 0 0 1 0"/>
<feBlend mode="normal" in2="BackgroundImageFix" result="effect1_dropShadow_0_1"/>
<feBlend mode="normal" in="SourceGraphic" in2="effect1_dropShadow_0_1" result="shape"/>
</filter>
</defs>
</svg>
