<svg width="183" height="225" viewBox="0 0 183 225" fill="none" xmlns="http://www.w3.org/2000/svg">
<path d="M171.622 1.3368C175.91 1.34268 179.424 4.82292 179.472 9.11004L179.891 46.8135C179.971 54.036 174.985 60.0702 168.239 61.582C175.019 63.1122 180.14 69.1626 180.22 76.3853L181.773 216.111C181.821 220.397 178.384 223.868 174.097 223.862L11.443 223.639C7.15568 223.633 3.64176 220.153 3.5941 215.866L2.04074 76.1406C1.96044 68.9175 6.94632 62.8815 13.6938 61.3702C6.91265 59.8403 1.79173 53.7918 1.71143 46.5688L1.29277 8.86531C1.2451 4.57819 4.68211 1.10796 8.96949 1.11384L171.622 1.3368Z" fill="#94B704" stroke="#080330" stroke-width="0.739334"/>
<circle cx="7.22261" cy="7.22261" r="7.22261" transform="matrix(1.00003 0.00432202 0.00816634 0.99993 16.5198 52.8501)" fill="#080330"/>
<circle cx="7.22261" cy="7.22261" r="7.22261" transform="matrix(1.00003 0.00432202 0.00816634 0.99993 39.1401 52.8813)" fill="#080330"/>
<circle cx="7.22261" cy="7.22261" r="7.22261" transform="matrix(1.00003 0.00432202 0.00816634 0.99993 61.7607 52.9121)" fill="#080330"/>
<circle cx="7.22261" cy="7.22261" r="7.22261" transform="matrix(1.00003 0.00432202 0.00816634 0.99993 84.3811 52.9434)" fill="#080330"/>
<circle cx="7.22261" cy="7.22261" r="7.22261" transform="matrix(1.00003 0.00432202 0.00816634 0.99993 107.001 52.9741)" fill="#080330"/>
<circle cx="7.22261" cy="7.22261" r="7.22261" transform="matrix(1.00003 0.00432202 0.00816634 0.99993 129.622 53.0054)" fill="#080330"/>
<circle cx="7.22261" cy="7.22261" r="7.22261" transform="matrix(1.00003 0.00432202 0.00816634 0.99993 152.242 53.0366)" fill="#080330"/>
</svg>
