<svg width="152" height="152" viewBox="0 0 152 152" fill="none" xmlns="http://www.w3.org/2000/svg">
<path d="M95.96 27.1514L96.1367 27.3848L96.4268 27.3447L129.155 22.8438L124.655 55.5732L124.615 55.8633L124.849 56.04L151.172 76L124.849 95.96L124.615 96.1367L124.655 96.4268L129.155 129.155L96.4268 124.655L96.1367 124.615L95.96 124.849L76 151.172L56.04 124.849L55.8633 124.615L55.5732 124.655L22.8438 129.155L27.3447 96.4268L27.3848 96.1367L27.1514 95.96L0.827148 76L27.1514 56.04L27.3848 55.8633L27.3447 55.5732L22.8438 22.8438L55.5732 27.3447L55.8633 27.3848L56.04 27.1514L76 0.827148L95.96 27.1514Z" fill="#FF6600" stroke="#080330"/>
</svg>
