<svg width="57" height="106" viewBox="0 0 57 106" fill="none" xmlns="http://www.w3.org/2000/svg">
<path fill-rule="evenodd" clip-rule="evenodd" d="M0.979858 27.9184V53.4067H5.50554L7.22048 105.048H9.47081L11.1863 53.4067H46.2081L47.9236 105.048H50.174L51.8889 53.4067H56.4152V27.9184H0.979858Z" />
<path fill-rule="evenodd" clip-rule="evenodd" d="M31.1548 39.9352C31.1548 41.0985 30.1835 42.0402 28.9853 42.0402C27.7877 42.0402 26.8165 41.0985 26.8165 39.9352C26.8165 38.7725 27.7877 37.8308 28.9853 37.8308C30.1835 37.8308 31.1548 38.7725 31.1548 39.9352Z"/>
<path fill-rule="evenodd" clip-rule="evenodd" d="M28.9859 38.1192C30.0183 38.1192 30.858 38.9342 30.858 39.9358C30.858 40.9379 30.0183 41.753 28.9859 41.753C27.953 41.753 27.1133 40.9379 27.1133 39.9358C27.1133 38.9342 27.953 38.1192 28.9859 38.1192ZM28.9859 42.3286C30.3453 42.3286 31.4516 41.2551 31.4516 39.9358C31.4516 38.6165 30.3453 37.5436 28.9859 37.5436C27.626 37.5436 26.5203 38.6165 26.5203 39.9358C26.5203 41.2551 27.626 42.3286 28.9859 42.3286ZM1.56419 53.1304H56.4071V28.2176H1.56419V53.1304ZM50.1752 104.772H48.4992L46.8035 53.706H51.8709L50.1752 104.772ZM9.47204 104.772H7.79607L6.10033 53.706H11.1678L9.47204 104.772ZM0.971191 27.642V53.706H5.50618L7.21299 105.069L7.22171 105.348H10.047L11.7614 53.706H46.2099L47.9249 105.348H50.7495L52.4645 53.706H57.0001V27.642H0.971191Z" fill="#080330"/>
<path fill-rule="evenodd" clip-rule="evenodd" d="M20.6591 27.9293H41.1972C41.5498 27.9293 41.8612 27.7082 41.9682 27.383L41.8053 27.9287H49.3372L45.195 16.5732L49.5362 2.03051C49.6864 1.52801 49.2976 1.02608 48.7588 1.02608H28.2201C27.8599 1.02608 27.5427 1.25747 27.4427 1.59305L19.881 26.9254C19.7315 27.4273 20.1202 27.9293 20.6591 27.9293Z" />
<path fill-rule="evenodd" clip-rule="evenodd" d="M38.9777 25.5934H24.0535C23.7666 25.5934 23.5606 25.3264 23.6397 25.0593L30.0264 3.66522C30.0794 3.48679 30.2481 3.36361 30.4396 3.36361H45.3638C45.6507 3.36361 45.8573 3.6307 45.7769 3.89778L39.3914 25.2924C39.3379 25.4703 39.1697 25.5934 38.9777 25.5934Z" />
<path fill-rule="evenodd" clip-rule="evenodd" d="M45.3638 3.36361H34.5783C34.2763 4.07794 34.1063 4.85904 34.1063 5.6787C34.1063 9.04656 36.9194 11.7761 40.3889 11.7761C41.6063 11.7761 42.7393 11.4342 43.7012 10.8534L45.7769 3.89778C45.8573 3.6307 45.6507 3.36361 45.3638 3.36361Z" />
<path fill-rule="evenodd" clip-rule="evenodd" d="M39.4799 19.2986C39.4799 14.0382 35.0851 9.77354 29.6644 9.77354C29.1558 9.77354 28.6571 9.81153 28.1701 9.88348L23.6397 25.0593C23.5606 25.3264 23.7666 25.5934 24.0535 25.5934L37.0282 25.5934C38.5529 23.915 39.4799 21.7121 39.4799 19.2986Z" />
<path fill-rule="evenodd" clip-rule="evenodd" d="M45.493 3.81719L43.4487 10.6646C42.5193 11.2039 41.4643 11.4877 40.3894 11.4877C37.0893 11.4877 34.4031 8.88193 34.4031 5.67812C34.4031 4.98279 34.5306 4.30242 34.7808 3.65084H45.3638C45.422 3.65084 45.4557 3.68365 45.4714 3.70322C45.486 3.72221 45.5087 3.7625 45.493 3.81719ZM39.1069 25.2112C39.0912 25.2665 39.0376 25.3051 38.9783 25.3051H37.6468C39.0196 23.5892 39.7767 21.4813 39.7767 19.2986C39.7767 13.8874 35.2405 9.48573 29.665 9.48573C29.3031 9.48573 28.94 9.51164 28.5786 9.54848L30.3116 3.74466C30.3279 3.6894 30.3808 3.65084 30.4402 3.65084H34.1593C33.9318 4.30587 33.8101 4.98509 33.8101 5.67812C33.8101 9.19909 36.7617 12.0633 40.3894 12.0633C41.3729 12.0633 42.3366 11.8377 43.2223 11.4244L39.1069 25.2112ZM24.0535 25.3051C23.9959 25.3051 23.9615 25.2723 23.947 25.2533C23.9318 25.2337 23.9092 25.1934 23.9255 25.1387L28.4022 10.1413C28.8201 10.0884 29.2431 10.0613 29.665 10.0613C34.9135 10.0613 39.1837 14.2051 39.1837 19.2986C39.1837 21.5038 38.3707 23.6318 36.8926 25.3051H24.0535ZM45.3638 3.07523H30.4402C30.1184 3.07523 29.8309 3.28476 29.7413 3.58523L23.3557 24.9793C23.2917 25.194 23.3342 25.4196 23.4727 25.5992C23.6112 25.7776 23.823 25.8807 24.0535 25.8807H38.9783C39.2995 25.8807 39.587 25.6717 39.6772 25.3713L46.0621 3.97721C46.1267 3.76194 46.0848 3.53629 45.9457 3.35727C45.8072 3.17826 45.5948 3.07523 45.3638 3.07523ZM49.2517 1.95108L41.6901 27.2828C41.6272 27.4941 41.4241 27.642 41.1977 27.642H20.6591C20.4967 27.642 20.3472 27.5695 20.2494 27.4429C20.1516 27.3168 20.1214 27.1574 20.1668 27.0054L27.7284 1.67364C27.7912 1.46182 27.9937 1.31389 28.2207 1.31389H48.7593C48.9217 1.31389 49.0713 1.38641 49.169 1.51247C49.2668 1.6391 49.2971 1.79854 49.2517 1.95108ZM48.9176 27.642H42.201L45.2235 17.5131L48.9176 27.642ZM49.6427 1.1671C49.4321 0.894843 49.1102 0.738281 48.7593 0.738281H28.2207C27.7313 0.738281 27.2948 1.05716 27.1581 1.51361L19.5971 26.846C19.4999 27.1723 19.5645 27.5165 19.7751 27.7888C19.9864 28.0611 20.3088 28.2176 20.6591 28.2176H41.1977C41.2757 28.2176 41.3479 28.1963 41.4218 28.1814L41.4113 28.2176H49.7568L45.5069 16.5645L49.8214 2.11052C49.9186 1.78358 49.854 1.43936 49.6427 1.1671Z" fill="#080330"/>
</svg>
