<svg width="56" height="164" viewBox="0 0 56 164" fill="none" xmlns="http://www.w3.org/2000/svg">
<path fill-rule="evenodd" clip-rule="evenodd" d="M23.531 108.72C23.531 108.72 -0.523632 32.8412 53.1846 0.263082C53.1846 0.263082 68.1896 38.9134 23.531 108.72Z" />
<path fill-rule="evenodd" clip-rule="evenodd" d="M53.0456 0.655689C40.978 8.04568 31.9231 18.2749 26.1303 31.0629C21.4581 41.378 18.8834 53.3734 18.4783 66.7167C17.8526 87.3099 22.6613 104.839 23.6173 108.099C36.2812 88.2177 51.8476 58.3899 54.8446 28.2879C56.4743 11.9238 53.6367 2.4124 53.0456 0.655689ZM23.531 108.984C23.52 108.984 23.5085 108.983 23.497 108.981C23.3967 108.968 23.3131 108.898 23.2822 108.8C23.2216 108.61 17.2631 89.5239 17.9561 66.7009C18.3633 53.2871 20.9537 41.2233 25.6552 30.8445C31.5364 17.8618 40.7527 7.49677 53.0497 0.0378413C53.1156 -0.00215574 53.1956 -0.0111095 53.2688 0.0141518C53.3414 0.0394131 53.3999 0.0951987 53.4276 0.167299C53.4658 0.26466 57.181 10.1003 55.3647 28.3405C52.3332 58.7888 36.4997 88.9356 23.7511 108.863C23.7025 108.939 23.6193 108.984 23.531 108.984Z" fill="#080330"/>
<path fill-rule="evenodd" clip-rule="evenodd" d="M28.3219 115.277C28.3219 115.277 18.4271 93.8089 40.2745 86.2321C40.2117 86.3615 42.7321 99.399 28.3219 115.277Z" />
<path fill-rule="evenodd" clip-rule="evenodd" d="M40.0455 86.591C33.9145 88.7861 29.7848 92.3142 27.7694 97.0818C24.6009 104.575 27.6518 112.953 28.4024 114.795C31.805 110.978 41.3094 99.0743 40.0455 86.591ZM28.3224 115.539C28.3088 115.539 28.2957 115.538 28.2827 115.536C28.1959 115.523 28.1222 115.467 28.0851 115.387C28.0401 115.289 23.6308 105.531 27.2864 96.8792C29.3965 91.8864 33.7379 88.2198 40.1898 85.9826C40.2896 85.9484 40.4009 85.9773 40.4705 86.0568C40.518 86.111 40.5405 86.181 40.5353 86.2505C40.5374 86.2763 40.5426 86.3221 40.5494 86.3868C40.9393 89.9992 40.2922 93.5852 39.6802 95.9571C37.9606 102.626 34.2041 109.185 28.5153 115.454C28.4651 115.509 28.3951 115.539 28.3224 115.539Z" fill="#080330"/>
<path fill-rule="evenodd" clip-rule="evenodd" d="M17.5291 110.596C17.5291 110.596 33.4054 68.1487 0.634088 56.7837C0.72817 56.9779 -4.0857 86.7784 17.5291 110.596Z" />
<path fill-rule="evenodd" clip-rule="evenodd" d="M0.866161 57.1442C0.86407 57.1652 0.861453 57.1874 0.858839 57.21C0.0941624 64.4479 -0.954849 89.5608 17.4293 110.093C18.4945 106.997 24.8628 87.0478 17.8296 71.9873C14.5593 64.9836 8.8532 59.9914 0.866161 57.1442ZM17.5291 110.859C17.4565 110.859 17.3859 110.828 17.3362 110.773C-1.49896 90.0192 -0.435319 64.4858 0.339288 57.1547C0.358105 56.9747 0.371699 56.8579 0.37379 56.8079C0.366995 56.7374 0.389479 56.6648 0.438088 56.6095C0.508127 56.53 0.618928 56.5 0.718759 56.5353C9.01156 59.4109 14.9278 64.5352 18.3037 71.7652C26.0033 88.2567 17.8568 110.466 17.7737 110.689C17.7418 110.774 17.6676 110.837 17.5788 110.854C17.562 110.858 17.5453 110.859 17.5291 110.859Z" fill="#080330"/>
<path fill-rule="evenodd" clip-rule="evenodd" d="M23.6267 163.085H22.702C14.1369 163.085 7.19316 156.094 7.19316 147.469V121.405H39.1361V147.469C39.1361 156.094 32.1923 163.085 23.6267 163.085Z" />
<path fill-rule="evenodd" clip-rule="evenodd" d="M7.4545 121.667V147.469C7.4545 155.934 14.2948 162.822 22.7026 162.822H23.6267C32.0345 162.822 38.8747 155.934 38.8747 147.469V121.667H7.4545ZM23.6267 163.348H22.7026C14.0068 163.348 6.93182 156.225 6.93182 147.469V121.404C6.93182 121.259 7.0489 121.141 7.19316 121.141H39.1361C39.2809 121.141 39.3974 121.259 39.3974 121.404V147.469C39.3974 156.225 32.323 163.348 23.6267 163.348Z" fill="#080330"/>
<path fill-rule="evenodd" clip-rule="evenodd" d="M23.1641 121.668C23.0198 121.668 22.9028 121.55 22.9028 121.405C22.9028 97.4355 26.7774 73.7709 34.4189 51.0688L45.0857 19.3806C45.1328 19.2433 45.2812 19.1691 45.4176 19.2159C45.554 19.2627 45.6272 19.4122 45.5812 19.5496L34.9139 51.2378C27.2912 73.8851 23.4254 97.4928 23.4254 121.405C23.4254 121.55 23.3084 121.668 23.1641 121.668Z" fill="#080330"/>
<path fill-rule="evenodd" clip-rule="evenodd" d="M17.5291 121.667C17.3849 121.667 17.2678 121.549 17.2678 121.404V115.548C17.2678 95.823 11.9391 76.4575 1.85767 59.5451L0.611624 57.4552C0.537404 57.3305 0.577122 57.1689 0.700997 57.0942C0.824871 57.0195 0.985858 57.0595 1.05956 57.1842L2.30562 59.274C12.4356 76.2681 17.7904 95.7272 17.7904 115.548V121.404C17.7904 121.549 17.6734 121.667 17.5291 121.667Z" fill="#080330"/>
<path fill-rule="evenodd" clip-rule="evenodd" d="M28.2236 121.667C28.0793 121.667 27.9623 121.549 27.9623 121.404V117.586C27.9623 105.897 32.266 94.6983 40.0811 86.0542C40.1783 85.9468 40.3435 85.9389 40.4501 86.0368C40.5572 86.1342 40.5646 86.301 40.4673 86.4084C32.7406 94.9557 28.4849 106.028 28.4849 117.586V121.404C28.4849 121.549 28.3679 121.667 28.2236 121.667Z" fill="#080330"/>
</svg>
