<svg width="30" height="30" viewBox="0 0 30 30" fill="none" xmlns="http://www.w3.org/2000/svg">
<path d="M21.9258 6C24.7589 6 27 8.36455 27 11.2109V26H25.1855C24.9031 26 24.6759 25.8969 24.5537 25.832C24.4113 25.7564 24.2813 25.6618 24.168 25.5664C23.9396 25.3741 23.7115 25.1207 23.5098 24.8301C23.2382 24.4388 22.984 23.9308 22.8467 23.3467C22.7936 23.2348 22.7389 23.1242 22.6787 23.0176C22.3523 22.4396 22.1029 22.3154 21.9258 22.3154H8.07422C5.24116 22.3154 3.00011 19.9518 3 17.1055V11.2109C3 8.36455 5.24109 6 8.07422 6H21.9258Z" stroke="black" stroke-width="2"/>
</svg>
