<svg width="126" height="126" viewBox="0 0 126 126" fill="none" xmlns="http://www.w3.org/2000/svg">
<circle cx="63" cy="63" r="63" fill="#F8F6E9"/>
<circle cx="41" cy="49" r="12" fill="black"/>
<circle cx="81" cy="49" r="12" fill="black"/>
<mask id="path-4-outside-1_0_1" maskUnits="userSpaceOnUse" x="50" y="50" width="26" height="38" fill="black">
<rect fill="white" x="50" y="50" width="26" height="38"/>
<path d="M59.9344 74.288L58.3728 67.8952C59.3162 67.6675 60.2109 67.4072 61.0568 67.1144C61.9026 66.7891 62.6834 66.4475 63.3992 66.0896C64.1149 65.7317 64.7168 65.3251 65.2048 64.8696C65.7253 64.3816 66.132 63.8611 66.4248 63.308C66.7176 62.7224 66.864 62.1043 66.864 61.4536C66.864 60.8029 66.7013 60.2499 66.376 59.7944C66.0506 59.3064 65.6114 58.9323 65.0584 58.672C64.5053 58.4117 63.8546 58.2816 63.1064 58.2816C62.0328 58.2816 60.9592 58.672 59.8856 59.4528C58.812 60.2011 57.8197 61.4211 56.9088 63.1128L51.5896 58.184C53.0536 55.9392 54.7941 54.1987 56.8112 52.9624C58.8608 51.7261 60.9917 51.108 63.204 51.108C65.3512 51.108 67.2869 51.5472 69.0112 52.4256C70.7354 53.2715 72.1018 54.4589 73.1104 55.988C74.1189 57.4845 74.6232 59.1763 74.6232 61.0632C74.6232 62.2669 74.3629 63.4544 73.8424 64.6256C73.3544 65.7968 72.6549 66.9029 71.744 67.944C70.8656 68.9525 69.8245 69.8472 68.6208 70.628C67.417 71.4088 66.0832 72.0107 64.6192 72.4336L64.1312 74.288H59.9344ZM58.1776 82.1936C58.1776 80.8923 58.568 79.8349 59.3488 79.0216C60.1296 78.2083 61.1381 77.8016 62.3744 77.8016C63.7082 77.8016 64.7493 78.192 65.4976 78.9728C66.2458 79.7211 66.62 80.7947 66.62 82.1936C66.62 83.4624 66.2296 84.5035 65.4488 85.3168C64.668 86.1301 63.6432 86.5368 62.3744 86.5368C61.0405 86.5368 59.9994 86.1627 59.2512 85.4144C58.5354 84.6661 58.1776 83.5925 58.1776 82.1936Z"/>
</mask>
<path d="M59.9344 74.288L58.3728 67.8952C59.3162 67.6675 60.2109 67.4072 61.0568 67.1144C61.9026 66.7891 62.6834 66.4475 63.3992 66.0896C64.1149 65.7317 64.7168 65.3251 65.2048 64.8696C65.7253 64.3816 66.132 63.8611 66.4248 63.308C66.7176 62.7224 66.864 62.1043 66.864 61.4536C66.864 60.8029 66.7013 60.2499 66.376 59.7944C66.0506 59.3064 65.6114 58.9323 65.0584 58.672C64.5053 58.4117 63.8546 58.2816 63.1064 58.2816C62.0328 58.2816 60.9592 58.672 59.8856 59.4528C58.812 60.2011 57.8197 61.4211 56.9088 63.1128L51.5896 58.184C53.0536 55.9392 54.7941 54.1987 56.8112 52.9624C58.8608 51.7261 60.9917 51.108 63.204 51.108C65.3512 51.108 67.2869 51.5472 69.0112 52.4256C70.7354 53.2715 72.1018 54.4589 73.1104 55.988C74.1189 57.4845 74.6232 59.1763 74.6232 61.0632C74.6232 62.2669 74.3629 63.4544 73.8424 64.6256C73.3544 65.7968 72.6549 66.9029 71.744 67.944C70.8656 68.9525 69.8245 69.8472 68.6208 70.628C67.417 71.4088 66.0832 72.0107 64.6192 72.4336L64.1312 74.288H59.9344ZM58.1776 82.1936C58.1776 80.8923 58.568 79.8349 59.3488 79.0216C60.1296 78.2083 61.1381 77.8016 62.3744 77.8016C63.7082 77.8016 64.7493 78.192 65.4976 78.9728C66.2458 79.7211 66.62 80.7947 66.62 82.1936C66.62 83.4624 66.2296 84.5035 65.4488 85.3168C64.668 86.1301 63.6432 86.5368 62.3744 86.5368C61.0405 86.5368 59.9994 86.1627 59.2512 85.4144C58.5354 84.6661 58.1776 83.5925 58.1776 82.1936Z" fill="#DCD489"/>
<path d="M59.9344 74.288L58.9629 74.5253L59.1492 75.288H59.9344V74.288ZM58.3728 67.8952L58.1381 66.9231L57.1634 67.1584L57.4013 68.1325L58.3728 67.8952ZM61.0568 67.1144L61.3839 68.0594L61.3999 68.0538L61.4157 68.0477L61.0568 67.1144ZM63.3992 66.0896L62.9519 65.1952H62.9519L63.3992 66.0896ZM65.2048 64.8696L65.8871 65.6007L65.8887 65.5991L65.2048 64.8696ZM66.4248 63.308L67.3085 63.7759L67.314 63.7656L67.3192 63.7552L66.4248 63.308ZM66.376 59.7944L65.5439 60.3491L65.5529 60.3625L65.5622 60.3756L66.376 59.7944ZM65.0584 58.672L64.6326 59.5768L64.6326 59.5768L65.0584 58.672ZM59.8856 59.4528L60.4574 60.2732L60.4656 60.2674L60.4737 60.2615L59.8856 59.4528ZM56.9088 63.1128L56.2291 63.8463L57.1767 64.7244L57.7892 63.5869L56.9088 63.1128ZM51.5896 58.184L50.7519 57.6377L50.2912 58.3442L50.9099 58.9175L51.5896 58.184ZM56.8112 52.9624L56.2947 52.1061L56.2886 52.1098L56.8112 52.9624ZM69.0112 52.4256L68.5572 53.3166L68.564 53.3201L68.5707 53.3234L69.0112 52.4256ZM73.1104 55.988L72.2755 56.5386L72.2811 56.5469L73.1104 55.988ZM73.8424 64.6256L72.9285 64.2195L72.9238 64.2302L72.9193 64.241L73.8424 64.6256ZM71.744 67.944L70.9914 67.2855L70.9899 67.2872L71.744 67.944ZM68.6208 70.628L68.0766 69.789L68.0766 69.789L68.6208 70.628ZM64.6192 72.4336L64.3416 71.4729L63.7965 71.6304L63.6521 72.1791L64.6192 72.4336ZM64.1312 74.288V75.288H64.902L65.0982 74.5425L64.1312 74.288ZM59.3488 79.0216L60.0701 79.7141L59.3488 79.0216ZM65.4976 78.9728L64.7756 79.6647L64.7829 79.6724L64.7905 79.6799L65.4976 78.9728ZM65.4488 85.3168L66.1701 86.0093L65.4488 85.3168ZM59.2512 85.4144L58.5285 86.1056L58.5362 86.1137L58.5441 86.1215L59.2512 85.4144ZM59.9344 74.288L60.9058 74.0507L59.3442 67.6579L58.3728 67.8952L57.4013 68.1325L58.9629 74.5253L59.9344 74.288ZM58.3728 67.8952L58.6074 68.8673C59.5795 68.6326 60.5052 68.3635 61.3839 68.0594L61.0568 67.1144L60.7296 66.1694C59.9166 66.4509 59.0529 66.7023 58.1381 66.9231L58.3728 67.8952ZM61.0568 67.1144L61.4157 68.0477C62.2878 67.7123 63.0984 67.358 63.8464 66.984L63.3992 66.0896L62.9519 65.1952C62.2685 65.5369 61.5175 65.8658 60.6978 66.1811L61.0568 67.1144ZM63.3992 66.0896L63.8464 66.984C64.6314 66.5915 65.3167 66.133 65.8871 65.6007L65.2048 64.8696L64.5224 64.1385C64.1169 64.5171 63.5983 64.872 62.9519 65.1952L63.3992 66.0896ZM65.2048 64.8696L65.8887 65.5991C66.4787 65.046 66.9574 64.4392 67.3085 63.7759L66.4248 63.308L65.541 62.8401C65.3066 63.2829 64.9719 63.7172 64.5208 64.1401L65.2048 64.8696ZM66.4248 63.308L67.3192 63.7552C67.681 63.0317 67.864 62.2605 67.864 61.4536H66.864H65.864C65.864 61.948 65.7542 62.4131 65.5303 62.8608L66.4248 63.308ZM66.864 61.4536H67.864C67.864 60.6295 67.655 59.8646 67.1897 59.2132L66.376 59.7944L65.5622 60.3756C65.7476 60.6351 65.864 60.9764 65.864 61.4536H66.864ZM66.376 59.7944L67.208 59.2397C66.7773 58.5936 66.1947 58.1016 65.4842 57.7672L65.0584 58.672L64.6326 59.5768C65.0281 59.763 65.324 60.0192 65.5439 60.3491L66.376 59.7944ZM65.0584 58.672L65.4842 57.7672C64.7715 57.4318 63.9695 57.2816 63.1064 57.2816V58.2816V59.2816C63.7397 59.2816 64.2391 59.3917 64.6326 59.5768L65.0584 58.672ZM63.1064 58.2816V57.2816C61.7758 57.2816 60.5009 57.7688 59.2974 58.6441L59.8856 59.4528L60.4737 60.2615C61.4174 59.5752 62.2897 59.2816 63.1064 59.2816V58.2816ZM59.8856 59.4528L59.3138 58.6324C58.0656 59.5024 56.9814 60.8686 56.0283 62.6387L56.9088 63.1128L57.7892 63.5869C58.658 61.9735 59.5584 60.8998 60.4574 60.2732L59.8856 59.4528ZM56.9088 63.1128L57.5884 62.3793L52.2692 57.4505L51.5896 58.184L50.9099 58.9175L56.2291 63.8463L56.9088 63.1128ZM51.5896 58.184L52.4272 58.7303C53.821 56.5931 55.4589 54.9641 57.3337 53.815L56.8112 52.9624L56.2886 52.1098C54.1293 53.4333 52.2862 55.2853 50.7519 57.6377L51.5896 58.184ZM56.8112 52.9624L57.3277 53.8187C59.2346 52.6685 61.1886 52.108 63.204 52.108V51.108V50.108C60.7948 50.108 58.4869 50.7838 56.2947 52.1061L56.8112 52.9624ZM63.204 51.108V52.108C65.2109 52.108 66.9884 52.5174 68.5572 53.3166L69.0112 52.4256L69.4651 51.5346C67.5854 50.577 65.4914 50.108 63.204 50.108V51.108ZM69.0112 52.4256L68.5707 53.3234C70.143 54.0947 71.3701 55.1657 72.2756 56.5386L73.1104 55.988L73.9451 55.4374C72.8336 53.7522 71.3278 52.4482 69.4516 51.5278L69.0112 52.4256ZM73.1104 55.988L72.2811 56.5469C73.1731 57.8705 73.6232 59.3658 73.6232 61.0632H74.6232H75.6232C75.6232 58.9867 75.0647 57.0986 73.9396 55.4291L73.1104 55.988ZM74.6232 61.0632H73.6232C73.6232 62.1181 73.396 63.1677 72.9285 64.2195L73.8424 64.6256L74.7562 65.0317C75.3298 63.7411 75.6232 62.4158 75.6232 61.0632H74.6232ZM73.8424 64.6256L72.9193 64.241C72.4765 65.3036 71.8375 66.3186 70.9914 67.2855L71.744 67.944L72.4965 68.6025C73.4723 67.4873 74.2322 66.29 74.7654 65.0102L73.8424 64.6256ZM71.744 67.944L70.9899 67.2872C70.1769 68.2206 69.2079 69.0552 68.0766 69.789L68.6208 70.628L69.165 71.467C70.4411 70.6392 71.5542 69.6844 72.498 68.6008L71.744 67.944ZM68.6208 70.628L68.0766 69.789C66.9602 70.5132 65.7171 71.0755 64.3416 71.4729L64.6192 72.4336L64.8967 73.3943C66.4492 72.9458 67.8738 72.3044 69.165 71.467L68.6208 70.628ZM64.6192 72.4336L63.6521 72.1791L63.1641 74.0335L64.1312 74.288L65.0982 74.5425L65.5862 72.6881L64.6192 72.4336ZM64.1312 74.288V73.288H59.9344V74.288V75.288H64.1312V74.288ZM58.1776 82.1936H59.1776C59.1776 81.1076 59.4958 80.3125 60.0701 79.7141L59.3488 79.0216L58.6274 78.3291C57.6402 79.3574 57.1776 80.677 57.1776 82.1936H58.1776ZM59.3488 79.0216L60.0701 79.7141C60.6431 79.1173 61.3813 78.8016 62.3744 78.8016V77.8016V76.8016C60.8949 76.8016 59.616 77.2993 58.6274 78.3291L59.3488 79.0216ZM62.3744 77.8016V78.8016C63.5036 78.8016 64.2583 79.1249 64.7756 79.6647L65.4976 78.9728L66.2195 78.2809C65.2403 77.2591 63.9129 76.8016 62.3744 76.8016V77.8016ZM65.4976 78.9728L64.7905 79.6799C65.2967 80.1862 65.62 80.9714 65.62 82.1936H66.62H67.62C67.62 80.6179 67.1949 79.256 66.2047 78.2657L65.4976 78.9728ZM66.62 82.1936H65.62C65.62 83.2393 65.3065 84.021 64.7274 84.6243L65.4488 85.3168L66.1701 86.0093C67.1526 84.9859 67.62 83.6855 67.62 82.1936H66.62ZM65.4488 85.3168L64.7274 84.6243C64.1596 85.2157 63.4084 85.5368 62.3744 85.5368V86.5368V87.5368C63.878 87.5368 65.1763 87.0446 66.1701 86.0093L65.4488 85.3168ZM62.3744 86.5368V85.5368C61.2329 85.5368 60.4731 85.2222 59.9583 84.7073L59.2512 85.4144L58.5441 86.1215C59.5257 87.1032 60.848 87.5368 62.3744 87.5368V86.5368ZM59.2512 85.4144L59.9738 84.7232C59.491 84.2185 59.1776 83.4273 59.1776 82.1936H58.1776H57.1776C57.1776 83.7577 57.5798 85.1138 58.5285 86.1056L59.2512 85.4144Z" fill="black" mask="url(#path-4-outside-1_0_1)"/>
</svg>
