<svg width="34" height="33" viewBox="0 0 34 33" fill="none" xmlns="http://www.w3.org/2000/svg">
<g filter="url(#filter0_d_646_120)">
<path d="M7.33203 20.3935V21.1222L8.15938 21.165C11.9847 21.3638 15.1159 19.2679 17 16.315C18.8646 19.2372 21.9848 21.3642 25.8406 21.165L26.668 21.1222V20.3935C26.668 15.6409 24.1461 14.0479 22.1199 12.7677C21.6078 12.4446 21.1408 12.1488 20.7529 11.8272C19.6725 12.8729 18.3752 13.4362 17 13.4362C15.626 13.4362 14.3293 12.8729 13.2488 11.8262C12.8604 12.1483 12.3928 12.4441 11.8801 12.7677C9.85391 14.0479 7.33203 15.6409 7.33203 20.3935Z" fill="#080330"/>
<path d="M17 11.8901C19.5797 11.8901 21.3945 8.51433 21.3945 6.47882C21.3945 4.34756 19.4231 2.61363 17 2.61363C14.5769 2.61363 12.6055 4.34756 12.6055 6.47882C12.6055 8.51645 14.4271 11.8901 17 11.8901Z" fill="#080330"/>
<path d="M30.2998 22.9279C30.1394 22.9451 22.4095 21.3306 17.0007 26.9709C11.5507 21.2659 3.9217 22.9516 3.70016 22.9279C3.70637 22.9397 3.86346 25.6365 6.05662 27.4539H2V29H32V27.4539H27.8956C30.1872 25.6364 30.1884 23.2863 30.2998 22.9279Z" fill="#080330"/>
<path d="M19.3437 21.0261C17.9384 20.0672 16.0615 20.068 14.6524 21.0213C13.9887 21.4703 13.2622 21.8517 12.4256 22.1529C12.4068 22.1859 12.4455 22.1205 12.4256 22.1529C13.9673 22.6844 15.5906 23.5662 17.0047 24.7292C18.4264 23.5687 20.0911 22.6784 21.5867 22.1741C21.5633 22.1349 21.6096 22.2143 21.5867 22.1741C20.7476 21.8719 20.0149 21.4841 19.3437 21.0261Z" fill="#080330"/>
<path d="M17 1.61363C19.851 1.61363 22.3945 3.67858 22.3945 6.47887C22.3945 7.74114 21.8529 9.29145 20.9814 10.5248C20.953 10.565 20.9221 10.6039 20.8926 10.6439L21.3916 11.057C21.7203 11.3295 22.1286 11.5911 22.6533 11.9222H22.6543C23.6531 12.5533 24.9401 13.357 25.9473 14.6703C26.9793 16.0161 27.668 17.8228 27.668 20.3939V21.7279C28.1623 21.7291 28.6064 21.7489 28.9873 21.7767C29.4273 21.8089 29.7845 21.8507 30.0361 21.8841C30.1495 21.8992 30.243 21.9121 30.3066 21.9212L31.707 21.7709L31.2627 23.1986C31.2675 23.1808 31.263 23.1977 31.248 23.2982C31.234 23.3931 31.2128 23.5366 31.1846 23.7005C31.127 24.0346 31.0335 24.4762 30.8594 24.974C30.6981 25.435 30.4683 25.94 30.1396 26.4535H33V30.0004H1V26.4535H3.88086C3.53023 25.8895 3.28495 25.3327 3.11426 24.8421C2.93642 24.3311 2.83464 23.883 2.77734 23.558C2.7543 23.4272 2.7397 23.3158 2.72852 23.2279L1.94531 21.7337L3.7002 21.9222C3.75945 21.9139 3.86666 21.8982 3.97754 21.8832C4.23029 21.8488 4.58703 21.8055 5.02637 21.7709C5.40408 21.7411 5.84377 21.7182 6.33203 21.7142V20.3939C6.33203 17.8228 7.02067 16.0161 8.05273 14.6703C9.05988 13.357 10.3469 12.5533 11.3457 11.9222H11.3467C11.8726 11.5902 12.2812 11.3289 12.6104 11.056L13.1074 10.6429C13.0786 10.6039 13.0493 10.565 13.0215 10.5257C12.1494 9.29313 11.6055 7.74287 11.6055 6.47887C11.6055 3.67858 14.149 1.61363 17 1.61363ZM22.8662 22.3646C23.2493 22.2568 23.6271 22.1664 23.9971 22.0902C23.4883 22.0235 22.9948 21.92 22.5176 21.7826L22.8662 22.3646ZM11.4785 21.7836C11.0272 21.9133 10.5617 22.0128 10.083 22.0795C10.4287 22.1521 10.7807 22.2385 11.1377 22.3392L11.4785 21.7836ZM17 18.0228C16.57 18.5545 16.0963 19.051 15.583 19.5033C16.5096 19.2424 17.4947 19.2437 18.4209 19.5072C17.905 19.053 17.4303 18.5547 17 18.0228Z" stroke="#F7F7F7" stroke-width="2"/>
</g>
<defs>
<filter id="filter0_d_646_120" x="0" y="0.613632" width="34" height="32.3864" filterUnits="userSpaceOnUse" color-interpolation-filters="sRGB">
<feFlood flood-opacity="0" result="BackgroundImageFix"/>
<feColorMatrix in="SourceAlpha" type="matrix" values="0 0 0 0 0 0 0 0 0 0 0 0 0 0 0 0 0 0 127 0" result="hardAlpha"/>
<feOffset dy="2"/>
<feComposite in2="hardAlpha" operator="out"/>
<feColorMatrix type="matrix" values="0 0 0 0 0.968627 0 0 0 0 0.968627 0 0 0 0 0.968627 0 0 0 1 0"/>
<feBlend mode="normal" in2="BackgroundImageFix" result="effect1_dropShadow_646_120"/>
<feBlend mode="normal" in="SourceGraphic" in2="effect1_dropShadow_646_120" result="shape"/>
</filter>
</defs>
</svg>
