<svg width="30" height="30" viewBox="0 0 30 30" fill="none" xmlns="http://www.w3.org/2000/svg">
<path d="M17.7209 4.26569C17.9693 4.01732 18.3304 3.9178 18.6711 4.00299L21.3782 4.67877L21.5188 4.72565C21.6551 4.78224 21.7775 4.86913 21.8772 4.97955L25.0813 8.5274L25.1555 8.6192C25.2237 8.71557 25.2742 8.82389 25.3049 8.93854L25.9553 11.3663C26.0478 11.7113 25.9491 12.0795 25.6965 12.3321L13.509 24.5196C13.3683 24.6602 13.1886 24.7559 12.9934 24.794L11.7034 25.045L4.72778 26.7891C3.81245 27.018 2.98272 26.1888 3.21118 25.2735L4.98462 18.1778L5.21411 17.0128L5.25317 16.8702C5.30274 16.731 5.3822 16.6035 5.48755 16.4981L17.7209 4.26569Z" stroke="black" stroke-width="2" stroke-linejoin="round"/>
<path d="M15.283 7.15174C15.35 6.88385 15.6215 6.72097 15.8894 6.78794L18.5899 7.46307C18.6862 7.48715 18.7732 7.53936 18.8397 7.61304L22.4194 11.5773C22.4724 11.636 22.5108 11.7065 22.5312 11.783L23.26 14.5026C23.3314 14.7693 23.1731 15.0435 22.9064 15.1149L21.9347 15.3753C21.849 15.3983 21.7609 15.3474 21.7379 15.2616C21.7059 15.1423 21.5569 15.1022 21.4693 15.1893L14.8906 21.7309C14.7636 21.8572 14.7139 22.0418 14.7602 22.2149L14.9266 22.8359C14.9981 23.1026 14.8398 23.3768 14.5731 23.4483L13.9291 23.6208C13.6624 23.6923 13.3882 23.534 13.3167 23.2673L12.6919 20.9354C12.6714 20.8589 12.6331 20.7884 12.5801 20.7297L9.60967 17.4402C9.54313 17.3665 9.45616 17.3143 9.35984 17.2902L7.15182 16.7382C6.88392 16.6712 6.72104 16.3997 6.78802 16.1318L6.94971 15.4851C7.01668 15.2172 7.28815 15.0543 7.55605 15.1213L7.85205 15.1953C8.0231 15.238 8.20402 15.1876 8.32821 15.0624L14.8672 8.47362C14.9189 8.42151 14.9733 8.37346 15.0301 8.32948C15.0451 8.31782 15.0403 8.29364 15.0219 8.28902C15.0098 8.28601 15.0025 8.27383 15.0055 8.2618L15.283 7.15174Z" fill="black"/>
</svg>
