<svg width="50" height="50" viewBox="0 0 50 50" fill="none" xmlns="http://www.w3.org/2000/svg">
<path d="M22.7144 5.26294C22.7144 6.57138 23.7751 7.63208 25.0836 7.63208C26.392 7.63208 27.4527 6.57138 27.4527 5.26294V2.99528C27.4527 1.21154 29.0076 -0.192643 30.7399 0.232599C33.745 0.970265 36.5369 2.2498 39.0059 3.96241C40.4186 4.94232 40.4639 6.94528 39.2483 8.16111L37.5769 9.83277C36.6518 10.758 36.6519 12.258 37.5771 13.1832C38.5024 14.1085 40.0026 14.1084 40.9278 13.1831L42.2668 11.8438C43.5522 10.5582 45.6911 10.6991 46.5832 12.2832C47.9827 14.7685 48.9702 17.5166 49.4532 20.4352C49.7313 22.1161 48.3518 23.5393 46.6481 23.5393H44.377C43.0683 23.5393 42.0074 24.6002 42.0074 25.9089C42.0074 27.2176 43.0683 28.2786 44.377 28.2786H46.0359C47.8689 28.2786 49.285 29.9164 48.7646 31.674C47.944 34.4455 46.6562 37.0163 44.9931 39.2959C44.0102 40.6433 42.0725 40.6678 40.8931 39.4885L40.4835 39.0789C39.5583 38.1536 38.0581 38.1536 37.1329 39.0789C36.2077 40.0041 36.2077 41.5042 37.1329 42.4294L37.321 42.6176C38.4647 43.7612 38.3198 45.666 36.9067 46.4526C35.2119 47.396 33.3964 48.1484 31.4889 48.6806C29.7393 49.1687 28.1295 47.7563 28.1295 45.9398V45.2014C28.1295 43.893 27.0688 42.8323 25.7603 42.8323C24.4519 42.8323 23.3912 43.893 23.3912 45.2014V46.3996C23.3912 48.1192 21.9423 49.5041 20.2503 49.1975C17.4714 48.6939 14.8523 47.7319 12.474 46.3924C10.8899 45.5003 10.749 43.3614 12.0347 42.076L12.7205 41.3904C13.6459 40.4652 13.6459 38.9649 12.7206 38.0396C11.7955 37.1145 10.2955 37.1144 9.37021 38.0395L8.35188 39.0576C7.13604 40.2732 5.1331 40.2278 4.15298 38.8153C2.65552 36.6571 1.48862 34.2523 0.725574 31.6741C0.205408 29.9164 1.62152 28.2786 3.4545 28.2786H4.43661C5.74533 28.2786 6.80624 27.2176 6.80624 25.9089C6.80624 24.6002 5.74532 23.5393 4.43661 23.5393H2.84234C1.13859 23.5393 -0.240894 22.1162 0.0371712 20.4353C0.581783 17.1431 1.7682 14.0677 3.46396 11.342C4.39989 9.83752 6.47548 9.74255 7.72845 10.9953L9.60256 12.8691C10.5279 13.7943 12.0279 13.7942 12.9531 12.869C13.8784 11.9437 13.8784 10.4435 12.9531 9.51824L11.0552 7.62029C9.80734 6.37244 9.89528 4.30658 11.3873 3.36424C13.8372 1.81696 16.5741 0.683071 19.5001 0.0598603C21.2132 -0.305 22.7144 1.08998 22.7144 2.84144V5.26294ZM24.7457 15.7551C19.8855 15.7551 15.9449 19.6947 15.9449 24.5549C15.9449 29.4151 19.8855 33.3547 24.7457 33.3547C29.6057 33.3545 33.5455 29.415 33.5455 24.5549C33.5455 19.6949 29.6057 15.7553 24.7457 15.7551Z" fill="black"/>
</svg>
