<svg width="32" height="35" viewBox="0 0 32 35" fill="none" xmlns="http://www.w3.org/2000/svg">
<g filter="url(#filter0_d_646_118)">
<path d="M14.5 23.5C11.3429 23.5 8.69428 25.3647 7.57363 28.0746C6.94047 29.6057 8.34315 31 10 31H19C20.6569 31 22.0595 29.6057 21.4264 28.0746C20.3057 25.3647 17.6571 23.5 14.5 23.5Z" fill="#080330"/>
<path d="M14.5 22C16.9853 22 19 19.9853 19 17.5C19 15.0147 16.9853 13 14.5 13C12.0147 13 10 15.0147 10 17.5C10 19.9853 12.0147 22 14.5 22Z" fill="#080330"/>
<path d="M22.5 11C24.9853 11 27 8.98528 27 6.5C27 4.01472 24.9853 2 22.5 2C20.0147 2 18 4.01472 18 6.5C18 8.98528 20.0147 11 22.5 11Z" fill="#080330"/>
<path d="M18.9 13.4C21.45 16.1 20.85 19.55 20.85 20H26.7202C28.4824 20 29.9363 18.4387 29.2398 16.82C27.0268 11.6768 20.9462 11.9932 18.9 13.4Z" fill="#080330"/>
<path d="M10.85 12.65C10.3412 12.2684 4.65505 12.1025 2.66365 16.9086C2.00391 18.5008 3.45112 20 5.17461 20H8.15C7.55 16.55 9.05 14 10.85 12.65Z" fill="#080330"/>
<path d="M9.5 11C11.9853 11 14 8.98528 14 6.5C14 4.01472 11.9853 2 9.5 2C7.01472 2 5 4.01472 5 6.5C5 8.98528 7.01472 11 9.5 11Z" fill="#080330"/>
<path d="M22.5 1C25.5376 1 28 3.46243 28 6.5C28 8.90511 26.4554 10.9472 24.3047 11.6943C26.5847 12.155 28.9168 13.5397 30.1582 16.4248C30.6731 17.6214 30.3775 18.8125 29.668 19.6592C28.9761 20.4847 27.8883 21 26.7197 21H19.8496V20C19.8496 19.7632 19.9202 19.2251 19.9033 18.5234C19.5375 20.467 18.15 22.0477 16.3193 22.6895C19.069 23.2716 21.3004 25.1529 22.3506 27.6924C22.83 28.8516 22.5221 29.9825 21.8203 30.7744C21.1408 31.541 20.0975 32 19 32H10C8.90254 32 7.85916 31.541 7.17969 30.7744C6.47785 29.9825 6.17002 28.8516 6.64941 27.6924C7.69946 25.1532 9.93041 23.2719 12.6797 22.6895C10.7081 21.9979 9.24859 20.217 9.02832 18.0674C8.99599 18.6175 9.02632 19.2056 9.13477 19.8291L9.33887 21H5.1748C4.03237 21 2.95984 20.5058 2.26855 19.7041C1.55845 18.8805 1.24825 17.7128 1.74023 16.5254C2.88318 13.7675 5.09625 12.4456 7.03027 11.875C7.26105 11.8069 7.48887 11.7488 7.71191 11.7002C5.55254 10.9579 4 8.91131 4 6.5C4 3.46243 6.46243 1 9.5 1C12.5376 1 15 3.46243 15 6.5C15 8.93272 13.4198 10.9943 11.2305 11.7197C11.3011 11.7535 11.3772 11.7949 11.4502 11.8496L12.2754 12.4697C12.9557 12.1684 13.7081 12 14.5 12C15.6886 12 16.7881 12.3785 17.6875 13.0195L18.333 12.5762C18.9242 12.1697 19.7309 11.8579 20.6465 11.6787C18.521 10.9179 17 8.88705 17 6.5C17 3.46243 19.4624 1 22.5 1Z" stroke="#F7F7F7" stroke-width="2"/>
</g>
<defs>
<filter id="filter0_d_646_118" x="0.499756" y="0" width="30.9189" height="35" filterUnits="userSpaceOnUse" color-interpolation-filters="sRGB">
<feFlood flood-opacity="0" result="BackgroundImageFix"/>
<feColorMatrix in="SourceAlpha" type="matrix" values="0 0 0 0 0 0 0 0 0 0 0 0 0 0 0 0 0 0 127 0" result="hardAlpha"/>
<feOffset dy="2"/>
<feComposite in2="hardAlpha" operator="out"/>
<feColorMatrix type="matrix" values="0 0 0 0 0.968627 0 0 0 0 0.968627 0 0 0 0 0.968627 0 0 0 1 0"/>
<feBlend mode="normal" in2="BackgroundImageFix" result="effect1_dropShadow_646_118"/>
<feBlend mode="normal" in="SourceGraphic" in2="effect1_dropShadow_646_118" result="shape"/>
</filter>
</defs>
</svg>
